<svg width="153" height="151" viewBox="0 0 153 151" fill="none" xmlns="http://www.w3.org/2000/svg">
<g clip-path="url(#clip0_3_543)">
<path d="M75.21 150.5C116.47 150.5 149.919 116.921 149.919 75.5C149.919 34.079 116.47 0.5 75.209 0.5C33.95 0.5 0.5 34.079 0.5 75.5C0.5 116.921 33.949 150.5 75.21 150.5Z" fill="url(#paint0_linear_3_543)"/>
<path opacity="0.15" d="M75.21 133C106.842 133 132.487 107.256 132.487 75.5C132.487 43.744 106.842 18 75.21 18C43.576 18 17.932 43.744 17.932 75.5C17.932 107.256 43.576 133 75.21 133Z" fill="url(#paint1_linear_3_543)"/>
<path d="M19.625 89.99C26.04 114.79 48.483 133.1 75.189 133.1C101.895 133.1 124.347 114.79 130.753 89.99H19.625Z" fill="#387A63"/>
<path d="M12.504 116.26C25.822 136.86 48.923 150.5 75.2 150.5C101.478 150.5 124.588 136.86 137.897 116.26H12.504Z" fill="#2F604D"/>
<path d="M44.887 64.56H22.862V90.86H44.887V64.56Z" fill="#316853"/>
<path d="M44.888 78.22H19.637V90.86H44.888V78.22Z" fill="#316853"/>
<path d="M60.276 74.55H44.886V90.86H60.276V74.55Z" fill="#316853"/>
<path d="M44.887 76.96H17.932V78.22H44.887V76.96ZM63.506 73.29H36.551V74.55H63.506V73.29ZM47.05 63.3H20.097V64.56H47.05V63.3ZM30.644 42.96H26.78L26.093 63.3H31.153L30.644 42.96ZM43.222 49.52H39.357L38.68 63.3H43.74L43.222 49.52ZM76.514 90.15H67.67V71.43C67.67 69.16 69.502 67.32 71.764 67.32H72.421C72.9597 67.321 73.4929 67.4282 73.9902 67.6353C74.4874 67.8424 74.9391 68.1454 75.3192 68.5271C75.6994 68.9087 76.0007 69.3615 76.2058 69.8596C76.411 70.3577 76.5161 70.8913 76.515 71.43L76.514 90.15ZM89.522 90.15H80.677V71.43C80.677 69.16 82.509 67.32 84.771 67.32H85.428C85.9667 67.321 86.4999 67.4282 86.9972 67.6353C87.4944 67.8424 87.9461 68.1454 88.3262 68.5271C88.7064 68.9087 89.0076 69.3615 89.2128 69.8596C89.418 70.3577 89.5231 70.8913 89.522 71.43V90.15ZM130.755 90.86H96.408V83.28C96.408 74.47 103.52 67.33 112.296 67.33H114.866C123.642 67.33 130.755 74.47 130.755 83.28V90.86Z" fill="#316853"/>
<path d="M92.155 80.51H57.808V90.86H92.155V80.51Z" fill="#316853"/>
<path d="M114.685 84.94H80.338V90.86H114.685V84.94Z" fill="#316853"/>
<path d="M85.1 67.32V59.17C85.1 57.13 86.884 55.48 89.075 55.48H109.855C112.056 55.48 113.829 57.13 113.829 59.17V67.32" stroke="#316853" stroke-width="0.998" stroke-miterlimit="10"/>
<path d="M50.538 100.54H48.506C47.789 100.54 47.201 101.25 47.201 102.14C47.201 104.46 48.536 104.06 50.538 104.06V100.54Z" fill="#FF4F26"/>
<path d="M145.359 85.91C145.359 86.54 145.867 87.05 146.494 87.05H149.702C150.329 87.05 150.837 86.54 150.837 85.91V75.68C150.837 75.05 150.329 74.54 149.702 74.54H146.494C145.867 74.54 145.359 75.05 145.359 75.68V85.91ZM88.758 107.77C88.758 112.74 91.288 116.77 94.407 116.77C97.524 116.77 100.055 112.74 100.055 107.77C100.055 102.8 97.525 98.77 94.407 98.77C91.289 98.76 88.758 102.8 88.758 107.77Z" fill="#2D2A2F"/>
<path d="M94.408 116.77C97.526 116.77 100.057 112.74 100.057 107.77C100.057 102.8 97.527 98.77 94.408 98.77H98.692C101.81 98.77 104.34 102.8 104.34 107.77C104.34 112.74 101.81 116.77 98.692 116.77H94.408Z" fill="#2D2A2F"/>
<path d="M106.739 111C106.739 111.88 107.327 112.6 108.044 112.6H118.702C119.42 112.6 120.007 111.89 120.007 111V99.86C120.007 98.98 119.43 98.26 118.702 98.26H108.044C107.327 98.26 106.739 98.97 106.739 99.86V111Z" fill="#99102D"/>
<path d="M53.196 94.54H117.994L117.078 108.71H51.692L53.196 94.54Z" fill="#99102D"/>
<path d="M141.961 65.71H111.619V68.38H141.961V65.71Z" fill="#F44A4A"/>
<path d="M129.102 107.77C129.102 112.74 131.632 116.77 134.75 116.77C137.868 116.77 140.398 112.74 140.398 107.77C140.398 102.8 137.868 98.77 134.75 98.77C131.632 98.76 129.102 102.8 129.102 107.77Z" fill="#2D2A2F"/>
<path d="M134.752 116.77C137.87 116.77 140.4 112.74 140.4 107.77C140.4 102.8 137.87 98.77 134.752 98.77H139.035C142.153 98.77 144.683 102.8 144.683 107.77C144.683 112.74 142.153 116.77 139.035 116.77H134.752Z" fill="#2D2A2F"/>
<path d="M103.223 95.63V65.84L144.761 65.75C145.329 65.75 145.787 66.32 145.797 67.01V67.18C145.807 67.86 145.548 68.51 145.11 68.93C144.681 69.34 144.462 70.01 144.552 70.67L146.405 84.6C146.445 84.92 145.349 84.84 145.399 86.09L145.449 108.69H115.684C115.684 108.69 117.925 107.97 117.836 107.09C117.218 101.12 110.345 94.89 105.304 94.89C100.254 94.89 87.553 101.14 86.935 107.11C86.845 107.98 86.278 108.69 85.561 108.69H82.433C81.716 108.69 81.128 107.98 81.128 107.09V95.63H103.223Z" fill="#F44A4A"/>
<path d="M149.543 108.34L146.475 110.84C146.007 111.22 145.39 110.81 145.39 110.13V86.1C145.39 85.22 145.977 84.5 146.695 84.5H148.239C148.956 84.5 149.543 85.21 149.543 86.1V108.34Z" fill="#F44A4A"/>
<path d="M89.408 95.63V65.56L114.122 65.75C115.347 65.76 115.517 67.93 114.461 68.94C114.033 69.35 113.813 70.02 113.903 70.68L115.706 84.23C115.746 84.55 114.899 85.53 114.949 86.79L114.799 108.98C114.779 107.82 114.7 106.24 114.461 105.08C113.485 100.29 109.211 96.54 104.719 96.54C99.549 96.54 95.504 101.31 94.907 107.13C94.817 108 94.249 108.71 93.532 108.71H77.315C76.598 108.71 76.03 107.99 75.93 107.11C75.313 101.14 71.159 96.53 66.118 96.53C61.068 96.53 56.904 101.16 56.297 107.14C56.207 108.01 55.639 108.72 54.922 108.72H51.794C51.077 108.72 50.489 108.01 50.489 107.12V95.63H89.408Z" fill="#B71833"/>
<path d="M92.327 72.15C92.327 71.27 92.914 70.55 93.632 70.55L109.102 70.49C109.839 70.49 110.446 71.18 110.496 72.08L111.074 82.16C111.124 83.02 110.566 83.75 109.869 83.75H93.632C92.914 83.75 92.327 83.04 92.327 82.15V72.15Z" fill="#82B79E"/>
<path d="M94.776 90.26H96.918C98.332 90.26 98.332 87.63 96.918 87.63H94.776C93.352 87.63 93.352 90.26 94.776 90.26Z" fill="#040002"/>
<path d="M76.097 111C76.097 111.88 76.674 112.6 77.402 112.6H88.06C88.777 112.6 89.365 111.89 89.365 111V99.86C89.365 98.98 88.787 98.26 88.06 98.26H77.402C76.684 98.26 76.097 98.97 76.097 99.86V111Z" fill="#B71833"/>
<path d="M85.262 110.99V99.85C85.262 98.97 84.674 98.25 83.957 98.25H88.021C88.738 98.25 89.326 98.96 89.326 99.85V110.99C89.326 111.87 88.738 112.59 88.021 112.59H83.957C84.684 112.59 85.262 111.87 85.262 110.99Z" fill="#99102D"/>
<path d="M64.396 116.77C67.514 116.77 70.044 112.74 70.044 107.77C70.044 102.8 67.514 98.77 64.396 98.77H68.68C71.797 98.77 74.328 102.8 74.328 107.77C74.328 112.74 71.798 116.77 68.68 116.77H64.396Z" fill="#2D2A2F"/>
<path d="M60.579 107.77C60.579 111.14 62.292 113.88 64.414 113.88C66.526 113.88 68.249 111.15 68.249 107.77C68.249 104.4 66.536 101.67 64.414 101.67C62.292 101.66 60.579 104.4 60.579 107.77Z" fill="#4F4C43"/>
<path d="M64.336 113.87C62.224 113.87 60.501 111.14 60.501 107.76C60.501 104.39 62.214 101.66 64.336 101.66H66.966C64.854 101.66 63.131 104.39 63.131 107.76C63.131 111.13 64.844 113.87 66.966 113.87H64.336Z" fill="#73716B"/>
<path d="M62.61 107.77C62.61 109.34 63.407 110.61 64.393 110.61C65.379 110.61 66.176 109.34 66.176 107.77C66.176 106.2 65.379 104.93 64.393 104.93C63.407 104.93 62.61 106.2 62.61 107.77Z" fill="#F9F8F9"/>
<path d="M64.392 104.93C65.378 104.93 66.175 106.2 66.175 107.77C66.175 109.34 65.378 110.61 64.392 110.61H65.179C66.165 110.61 66.962 109.34 66.962 107.77C66.962 106.2 66.165 104.93 65.179 104.93H64.392Z" fill="#73716B"/>
<path d="M58.746 107.77C58.746 112.74 61.276 116.77 64.394 116.77C67.512 116.77 70.042 112.74 70.042 107.77C70.042 102.8 67.512 98.77 64.394 98.77C61.276 98.76 58.746 102.8 58.746 107.77ZM60.579 107.77C60.579 104.4 62.292 101.67 64.414 101.67C66.526 101.67 68.249 104.4 68.249 107.77C68.249 111.14 66.536 113.88 64.414 113.88C62.292 113.87 60.579 111.14 60.579 107.77Z" fill="#2D2A2F"/>
<path d="M114.878 68.35H145.519C145.17 69.05 144.423 69.34 144.553 70.6H113.912C113.792 69.34 114.53 69.05 114.878 68.35Z" fill="#B71833"/>
<path d="M120.733 58.53C120.853 58.54 120.963 58.59 121.073 58.7L128.324 65.74L90.024 65.76V58.53H120.733Z" fill="#F44A4A"/>
<path d="M97.684 65.74L90.432 58.7C90.024 58.3 89.416 58.66 89.416 59.3V65.74H97.684Z" fill="#B71833"/>
<path d="M127.776 65.31L128.274 65.82H89.794V65.31H127.776Z" fill="#B71833"/>
<path d="M148.785 84.68H118.215V98.57H148.785V84.68Z" fill="#F44A4A"/>
<path d="M103.054 116.77C106.172 116.77 108.702 112.74 108.702 107.77C108.702 102.8 106.172 98.77 103.054 98.77H107.338C110.455 98.77 112.986 102.8 112.986 107.77C112.986 112.74 110.456 116.77 107.338 116.77H103.054Z" fill="#2D2A2F"/>
<path d="M99.241 107.771C99.241 111.141 100.954 113.881 103.076 113.881C105.188 113.881 106.911 111.151 106.911 107.771C106.911 104.401 105.198 101.671 103.076 101.671C100.954 101.661 99.241 104.401 99.241 107.771Z" fill="#4F4C43"/>
<path d="M102.994 113.87C100.883 113.87 99.159 111.14 99.159 107.76C99.159 104.39 100.873 101.66 102.994 101.66H105.624C103.512 101.66 101.789 104.39 101.789 107.76C101.789 111.13 103.502 113.87 105.624 113.87H102.994Z" fill="#73716B"/>
<path d="M101.272 107.77C101.272 109.34 102.069 110.61 103.055 110.61C104.041 110.61 104.838 109.34 104.838 107.77C104.838 106.2 104.041 104.93 103.055 104.93C102.069 104.93 101.272 106.2 101.272 107.77Z" fill="#F9F8F9"/>
<path d="M103.054 104.93C104.04 104.93 104.837 106.2 104.837 107.77C104.837 109.34 104.04 110.61 103.054 110.61H103.841C104.827 110.61 105.624 109.34 105.624 107.77C105.624 106.2 104.827 104.93 103.841 104.93H103.054Z" fill="#73716B"/>
<path d="M97.397 107.77C97.397 112.74 99.927 116.77 103.045 116.77C106.163 116.77 108.693 112.74 108.693 107.77C108.693 102.8 106.163 98.77 103.045 98.77C99.927 98.76 97.397 102.8 97.397 107.77ZM99.24 107.77C99.24 104.4 100.953 101.67 103.075 101.67C105.187 101.67 106.91 104.4 106.91 107.77C106.91 111.14 105.197 113.88 103.075 113.88C100.953 113.87 99.24 111.14 99.24 107.77Z" fill="#2D2A2F"/>
<path d="M115.036 84.51V85.16H149.292C149.073 84.88 148.784 84.54 148.396 84.53C147.556 84.5099 146.716 84.5065 145.876 84.52C142.1 84.56 133.773 84.53 115.036 84.51Z" fill="#B71833"/>
<path d="M123.413 101.86C123.413 100.98 122.706 100.26 121.819 100.26H118.911V104.55H121.819C122.696 104.55 123.413 103.84 123.413 102.95V101.86ZM145.079 101.86C145.079 100.98 145.786 100.26 146.673 100.26H149.581V104.55H146.673C145.796 104.55 145.079 103.84 145.079 102.95V101.86Z" fill="#B3F9FA"/>
<path d="M115.393 110.96H145.556C146.582 110.96 146.751 110.6 147.548 109.96L149.531 108.35H117.166L115.393 110.96Z" fill="#99102D"/>
<path d="M118.913 108.34L115.844 110.84C115.376 111.22 114.759 110.81 114.759 110.13V86.1C114.759 85.22 115.346 84.5 116.064 84.5H117.608C118.325 84.5 118.913 85.21 118.913 86.1V108.34Z" fill="#B71833"/>
<path d="M118.91 104.55L118.084 104.05C117.386 103.63 116.938 102.75 116.938 101.8C116.938 100.94 117.506 100.24 118.213 100.24H118.901V104.55H118.91Z" fill="#5BDDDD"/>
<path d="M123.524 106.97C123.524 106.09 122.956 105.37 122.249 105.37H114.917C114.21 105.37 113.642 106.08 113.642 106.97V109.69C113.642 110.57 114.21 111.29 114.917 111.29H122.249C122.956 111.29 123.524 110.58 123.524 109.69V106.97ZM56.215 106.97C56.215 106.09 55.647 105.37 54.94 105.37H47.609C46.901 105.37 46.334 106.08 46.334 106.97V109.69C46.334 110.57 46.901 111.29 47.609 111.29H54.94C55.647 111.29 56.215 110.58 56.215 109.69V106.97Z" fill="#474046"/>
<path d="M53.367 109.69V106.97C53.367 106.09 52.8 105.37 52.092 105.37H54.892C55.599 105.37 56.167 106.08 56.167 106.97V109.69C56.167 110.57 55.599 111.29 54.892 111.29H52.092C52.8 111.29 53.367 110.57 53.367 109.69Z" fill="#2D2A2F"/>
<path d="M152.5 106.97C152.5 106.09 151.932 105.37 151.225 105.37H119.777C119.07 105.37 118.502 106.08 118.502 106.97V109.69C118.502 110.57 119.07 111.29 119.777 111.29H151.225C151.932 111.29 152.5 110.58 152.5 109.69V106.97Z" fill="#898589"/>
<path d="M117.866 82.83C116.879 82.83 116.182 82.32 116.063 81.47L114.937 73.12C114.678 71.89 116.77 72.14 116.77 72.14H142.998C143.536 72.14 143.894 72.5 143.984 73.12L145.11 81.47C145.19 82.07 144.422 82.83 143.735 82.83H117.866Z" fill="#A0DEC0"/>
<path d="M109.857 83.73H105.354V78.05C105.354 77.2 106.012 76.52 106.838 76.46H110.733L111.063 82.14C111.112 83 110.564 83.73 109.857 83.73Z" fill="#377E8E"/>
<path d="M102.646 76.46H106.839C106.013 76.52 105.355 77.2 105.355 78.05V83.73H101.062V78.06C101.059 77.8505 101.098 77.6426 101.177 77.4483C101.255 77.254 101.372 77.0773 101.519 76.9284C101.666 76.7795 101.842 76.6614 102.035 76.581C102.229 76.5006 102.436 76.4594 102.646 76.46Z" fill="#2E707C"/>
<path d="M111.053 85.14H110.525V97.07H111.053V85.14ZM130.666 106.54C130.666 106.36 130.806 106.22 130.985 106.22H140.02C140.199 106.22 140.338 106.36 140.338 106.54V110.12C140.338 110.3 140.198 110.44 140.02 110.44H130.985C130.943 110.441 130.901 110.433 130.862 110.417C130.823 110.401 130.787 110.378 130.757 110.348C130.727 110.318 130.704 110.282 130.688 110.243C130.672 110.204 130.664 110.162 130.665 110.12L130.666 106.54Z" fill="#F44A4A"/>
<path d="M139.553 106.54V110.12C139.553 110.3 139.413 110.44 139.235 110.44C139.693 110.44 140.35 110.56 140.35 110.12V106.54C140.35 106.36 140.21 106.22 140.031 106.22H139.235C139.404 106.22 139.553 106.36 139.553 106.54Z" fill="#2D2A2F"/>
<path d="M135.329 78.09C135.329 77.21 134.621 76.49 133.735 76.49H122.977V72.15H141.147C141.754 82.62 141.824 82.3 141.624 82.84H135.319V78.09H135.329Z" fill="#82B79E"/>
<path d="M121.521 82.85C116.8 82.85 116.311 83.25 115.973 80.7C117.876 79.36 121.093 80.01 121.521 82.85Z" fill="#377E8E"/>
<path d="M122.976 76.49H133.734C134.611 76.49 135.328 77.2 135.328 78.09V82.85H122.946C122.448 79.49 118.712 77.7 115.804 79.45L115.405 76.49H122.976Z" fill="#377E8E"/>
<path d="M115.971 80.69L115.801 79.44C118.701 77.69 122.446 79.48 122.944 82.84H121.519C121.091 80.01 117.874 79.36 115.971 80.69Z" fill="#B9B9B9"/>
<path d="M140.775 72.13L142.259 82.81H143.265L141.711 72.13H140.775ZM137.588 72.13L139.082 82.81H141.762L140.208 72.13H137.588Z" fill="#C7F2DB"/>
<path d="M93.62 70.55H94.746C94.028 70.55 93.441 71.27 93.441 72.15V82.15C93.441 83.03 94.028 83.75 94.746 83.75H93.62C92.903 83.75 92.315 83.04 92.315 82.15V72.15C92.315 71.27 92.893 70.55 93.62 70.55Z" fill="#41825E"/>
<path d="M125.685 87.5H141.932C142.809 87.5 143.526 88.21 143.526 89.1V102.59H125.686L125.685 87.5Z" fill="#474046"/>
<path d="M127.758 90.04C127.798 90.25 127.998 90.43 128.216 90.43C143.756 90.43 143.377 90.61 143.278 90.04C143.256 89.9332 143.199 89.8369 143.116 89.7662C143.033 89.6956 142.929 89.6547 142.82 89.65H128.077C127.857 89.65 127.718 89.82 127.758 90.04Z" fill="#B71833"/>
<path d="M142.242 89.65C142.71 89.65 143.188 89.57 143.278 90.04C143.358 90.51 142.85 90.43 142.381 90.43C142.889 90.42 142.76 89.65 142.241 89.65H142.242Z" fill="#1B2A59"/>
<path d="M127.758 91.78C127.798 92 127.998 92.17 128.216 92.17C143.756 92.17 143.377 92.35 143.278 91.78C143.256 91.6733 143.199 91.5769 143.116 91.5062C143.033 91.4356 142.929 91.3947 142.82 91.39H128.077C127.857 91.39 127.718 91.56 127.758 91.78Z" fill="#B71833"/>
<path d="M142.242 91.39C142.71 91.39 143.188 91.31 143.278 91.78C143.358 92.25 142.85 92.17 142.381 92.17C142.889 92.16 142.76 91.39 142.241 91.39H142.242Z" fill="#1B2A59"/>
<path d="M127.758 93.52C127.798 93.73 127.998 93.91 128.216 93.91C143.756 93.91 143.377 94.09 143.278 93.52C143.256 93.4133 143.199 93.3169 143.116 93.2463C143.033 93.1756 142.929 93.1347 142.82 93.13H128.077C127.857 93.13 127.718 93.3 127.758 93.52Z" fill="#B71833"/>
<path d="M142.242 93.13C142.71 93.13 143.188 93.05 143.278 93.52C143.358 93.99 142.85 93.91 142.381 93.91C142.889 93.9 142.76 93.13 142.241 93.13H142.242Z" fill="#1B2A59"/>
<path d="M127.758 100.47C127.798 100.68 127.998 100.86 128.216 100.86C143.756 100.86 143.377 101.04 143.278 100.47C143.256 100.363 143.199 100.267 143.116 100.196C143.033 100.126 142.929 100.085 142.82 100.08H128.077C127.857 100.08 127.718 100.26 127.758 100.47Z" fill="#B71833"/>
<path d="M142.242 100.08C142.71 100.08 143.188 100 143.278 100.47C143.358 100.94 142.85 100.86 142.381 100.86C142.889 100.86 142.76 100.08 142.241 100.08H142.242Z" fill="#1B2A59"/>
<path d="M127.758 96.99C127.798 97.21 127.998 97.38 128.216 97.38C143.756 97.38 143.377 97.56 143.278 96.99C143.256 96.8833 143.199 96.7869 143.116 96.7162C143.033 96.6456 142.929 96.6047 142.82 96.6H128.077C127.857 96.61 127.718 96.78 127.758 96.99Z" fill="#B71833"/>
<path d="M142.242 96.61C142.71 96.61 143.188 96.53 143.278 97C143.358 97.47 142.85 97.39 142.381 97.39C142.889 97.38 142.76 96.61 142.241 96.61H142.242Z" fill="#1B2A59"/>
<path d="M127.758 98.73C127.798 98.95 127.998 99.12 128.216 99.12C143.756 99.12 143.377 99.3 143.278 98.73C143.256 98.6233 143.199 98.5269 143.116 98.4562C143.033 98.3856 142.929 98.3447 142.82 98.34H128.077C127.857 98.35 127.718 98.52 127.758 98.73Z" fill="#B71833"/>
<path d="M142.242 98.35C142.71 98.35 143.188 98.27 143.278 98.74C143.289 98.7874 143.288 98.8365 143.277 98.8838C143.266 98.931 143.244 98.9751 143.213 99.0127C143.183 99.0503 143.144 99.0804 143.1 99.1007C143.056 99.121 143.008 99.131 142.959 99.13H142.381C142.889 99.12 142.76 98.35 142.241 98.35H142.242Z" fill="#1B2A59"/>
<path d="M127.758 95.25C127.798 95.46 127.998 95.64 128.216 95.64C143.756 95.64 143.377 95.82 143.278 95.25C143.256 95.1433 143.199 95.0469 143.116 94.9762C143.033 94.9056 142.929 94.8647 142.82 94.86H128.077C127.857 94.87 127.718 95.04 127.758 95.25Z" fill="#B71833"/>
<path d="M142.242 94.87C142.71 94.87 143.188 94.79 143.278 95.26C143.358 95.73 142.85 95.65 142.381 95.65C142.889 95.64 142.76 94.87 142.241 94.87H142.242Z" fill="#1B2A59"/>
<path d="M143.526 102.58H125.686V103.45H142.659C142.889 103.449 143.11 103.357 143.272 103.194C143.435 103.031 143.526 102.81 143.526 102.58Z" fill="#99102D"/>
<path d="M125.685 103.45C126.353 103.45 126.901 102.9 126.901 102.23V88.72C126.901 88.05 126.353 87.5 125.685 87.5V103.45Z" fill="#B71833"/>
<path d="M36.34 26.25H34.069C33.8045 26.2511 33.5511 26.3569 33.3645 26.5443C33.1778 26.7317 33.073 26.9855 33.073 27.25V115.26C33.073 115.525 33.1778 115.778 33.3645 115.966C33.5511 116.153 33.8045 116.259 34.069 116.26H36.339C36.888 116.26 37.336 115.81 37.336 115.26V27.25C37.336 26.69 36.888 26.25 36.34 26.25Z" fill="#F44A4A"/>
<path d="M43.891 29.87H40.524L41.52 32.49H42.895L43.891 29.87ZM30.163 29.87H26.796L27.792 32.49H29.167L30.163 29.87Z" fill="#12102B"/>
<path d="M40.417 109.98H29.987C29.25 109.98 28.652 110.58 28.652 111.32V116.35H41.752V111.32C41.762 110.58 41.164 109.98 40.417 109.98Z" fill="#F44A4A"/>
<path d="M73.908 89.87L20.625 69.67L81.289 57.74" stroke="white" stroke-width="3.992" stroke-miterlimit="10" stroke-linejoin="round"/>
<path d="M29.35 66.31H17.605V74.28H29.35V66.31ZM87.881 49.81H70.44V65.33H87.882L87.881 49.81Z" fill="#242D3A"/>
<path d="M85.264 56.38H73.062V69.94H85.264V56.38ZM81.616 89.07H65.209V95.66H81.616V89.07Z" fill="#242D3A"/>
<path d="M79.217 83.87H67.622V89.12H79.217V83.87Z" fill="#242D3A"/>
<path d="M28.784 30.44C23.133 34.566 16.727 37.799 9.89698 40.226M27.874 30.44C58.491 52.798 113.146 47.95 135.566 32.105L27.874 30.44ZM42.33 30.44C69.472 50.26 114.024 49.444 139.335 38L42.33 30.44ZM43.236 30.44C33.149 37.805 20.658 42.32 7.64398 44.5L43.236 30.44Z" stroke="#242D3A" stroke-width="0.998" stroke-miterlimit="10"/>
<path d="M45.205 35.77V33.49C45.205 33.2255 45.1002 32.9717 44.9135 32.7843C44.7268 32.5969 44.4735 32.4911 44.209 32.49H26.19C25.9254 32.4911 25.6721 32.5969 25.4854 32.7843C25.2988 32.9717 25.194 33.2255 25.194 33.49V35.77C25.194 36.0345 25.2988 36.2883 25.4854 36.4757C25.6721 36.6631 25.9254 36.7689 26.19 36.77H44.21C44.768 36.77 45.206 36.32 45.206 35.77H45.205Z" fill="#F44A4A"/>
</g>
<defs>
<linearGradient id="paint0_linear_3_543" x1="75.2076" y1="150.5" x2="75.2076" y2="0.5" gradientUnits="userSpaceOnUse">
<stop stop-color="#A0D69A"/>
<stop offset="1" stop-color="#F1ED98"/>
</linearGradient>
<linearGradient id="paint1_linear_3_543" x1="75.2076" y1="133" x2="75.2076" y2="18" gradientUnits="userSpaceOnUse">
<stop stop-color="#32A37F" stop-opacity="0"/>
<stop offset="1" stop-color="#0A6259"/>
</linearGradient>
<clipPath id="clip0_3_543">
<rect width="153" height="151" fill="white"/>
</clipPath>
</defs>
</svg>
