<svg width="166" height="160" viewBox="0 0 166 160" fill="none" xmlns="http://www.w3.org/2000/svg">
<g clip-path="url(#clip0_3_178)">
<path d="M78.923 159.078C122.511 159.078 157.846 123.467 157.846 79.538C157.846 35.612 122.511 0 78.923 0C35.335 0 0 35.61 0 79.539C0 123.467 35.335 159.078 78.923 159.078Z" fill="url(#paint0_linear_3_178)"/>
<path opacity="0.25" d="M78.922 140.519C112.339 140.519 139.429 113.218 139.429 79.539C139.429 45.861 112.339 18.559 78.922 18.559C45.504 18.559 18.414 45.861 18.414 79.539C18.414 113.218 45.504 140.519 78.922 140.519Z" fill="url(#paint1_linear_3_178)"/>
<path opacity="0.35" d="M143.449 125.3L117.52 116.158L34.64 145.386C35.5166 145.988 36.4078 146.567 37.313 147.125L69.567 158.504C72.639 158.865 75.754 159.077 78.922 159.077C105.598 159.077 129.169 145.725 143.449 125.3Z" fill="#12102B"/>
<path d="M110.607 12.96L109.692 12.557L28.275 41.275C27.7845 41.4491 27.3601 41.7712 27.0604 42.1968C26.7608 42.6224 26.6006 43.1305 26.602 43.651V109.138C26.602 109.731 26.97 110.272 27.517 110.484V109.806L110.597 80.504V12.96H110.607Z" fill="url(#paint2_linear_3_178)"/>
<path d="M27.531 106.985V44.043C27.531 42.973 28.205 42.028 29.204 41.668L109.874 13.214C110.063 13.1478 110.265 13.128 110.464 13.1563C110.662 13.1846 110.851 13.2602 111.014 13.3767C111.177 13.4931 111.309 13.6471 111.4 13.8255C111.491 14.0039 111.538 14.2017 111.537 14.402V79.115C111.537 79.635 111.376 80.1422 111.076 80.5673C110.777 80.9924 110.354 81.3147 109.864 81.49L30.856 109.361C29.226 109.933 27.531 108.724 27.531 106.985Z" fill="white"/>
<path d="M83.535 126.976L27.531 108.067V110.495L82.704 129.956C83.2381 130.147 83.8219 130.147 84.356 129.956L165.005 101.449V98.183L83.535 126.976Z" fill="url(#paint3_linear_3_178)"/>
<path d="M29.18 106.391V45.539C29.18 44.468 29.853 43.524 30.853 43.163L108.24 15.92C108.429 15.854 108.631 15.8344 108.829 15.8628C109.027 15.8911 109.216 15.9666 109.379 16.0829C109.541 16.1993 109.674 16.353 109.765 16.5312C109.856 16.7094 109.903 16.9069 109.902 17.107V79.72C109.902 80.2402 109.741 80.7476 109.442 81.1729C109.142 81.5982 108.719 81.9206 108.229 82.096L32.505 108.757C30.885 109.33 29.18 108.121 29.18 106.392V106.391Z" fill="url(#paint4_linear_3_178)"/>
<path d="M27.531 108.067L111.537 78.436L164.173 97.006C165.289 97.398 165.289 98.989 164.173 99.381L84.356 127.538C83.8219 127.729 83.2381 127.729 82.704 127.538L27.53 108.067H27.531Z" fill="url(#paint5_linear_3_178)"/>
<path d="M132.151 111.938L115.598 117.781C115.465 117.828 115.323 117.841 115.183 117.821C115.044 117.801 114.911 117.748 114.797 117.666C114.682 117.584 114.589 117.475 114.525 117.35C114.461 117.224 114.429 117.085 114.43 116.944L132.74 110.485V111.1C132.74 111.283 132.683 111.462 132.578 111.612C132.472 111.762 132.323 111.876 132.151 111.938Z" fill="#B0BDD6"/>
<path d="M37.895 47.002V92.942L101.191 70.662V24.72L37.894 47.002H37.895Z" fill="url(#paint6_linear_3_178)"/>
<path d="M37.895 100.717V104.217L101.191 81.935V78.435L37.894 100.717H37.895Z" fill="#D8BDF8"/>
<path d="M63.285 43.195V45.857L96.833 34.223V31.561L63.285 43.195ZM63.285 58.858V60.428L96.833 48.784V47.224L63.285 58.859V58.858ZM63.285 62.337V63.897L96.833 52.263V50.693L63.285 62.338V62.337ZM63.285 65.805V67.375L96.833 55.731V54.171L63.285 65.806V65.805ZM63.285 69.283V70.843L96.833 59.208V57.638L63.285 69.284V69.283ZM63.285 72.75V74.32L96.833 62.676V61.116L63.285 72.752V72.75ZM63.285 76.22V77.79L96.833 66.155V64.585L63.285 76.22ZM63.285 48.031V50.693L96.833 39.059V36.397L63.285 48.031Z" fill="#C0A2E3"/>
<path d="M63.506 40.416L65.979 60.842L84.899 60.927C86.268 72.2 78.901 81.31 68.452 81.257C57.992 81.214 48.416 72.041 47.048 60.757C45.691 49.473 53.046 40.363 63.506 40.417V40.416Z" fill="url(#paint7_linear_3_178)"/>
<path d="M77.418 78.67L71.283 82.667C68.747 84.322 65.695 85.266 62.318 85.255C51.858 85.213 42.282 76.039 40.914 64.755C39.988 57.119 43.06 50.481 48.395 47.002L54.531 43.004C49.195 46.482 46.123 53.121 47.049 60.757C48.417 72.03 57.993 81.215 68.453 81.257C71.83 81.267 74.883 80.324 77.418 78.669V78.67Z" fill="url(#paint8_linear_3_178)"/>
<path d="M74.66 29.344C85.11 29.387 94.696 38.571 96.064 49.844L77.134 49.759L74.66 29.344Z" fill="url(#paint9_linear_3_178)"/>
<path d="M96.063 49.844L89.928 53.842L71.008 53.768L77.132 49.758L96.063 49.844Z" fill="url(#paint10_linear_3_178)"/>
<path d="M77.132 49.76L71.008 53.768L68.535 33.342L74.66 29.344L77.132 49.759V49.76Z" fill="url(#paint11_linear_3_178)"/>
<path d="M125.382 52.114C125.361 51.9075 125.329 51.7023 125.287 51.499C125.172 50.9971 125.01 50.5073 124.803 50.036C124.586 49.5456 124.329 49.074 124.035 48.626C123.658 48.0394 123.232 47.4857 122.762 46.971C121.488 45.561 119.878 44.341 118.163 43.598C118.121 43.578 118.079 43.567 118.037 43.545C117.51 43.3252 116.964 43.1548 116.406 43.036C115.966 42.9461 115.518 42.8998 115.069 42.898C114.647 42.9017 114.229 42.9698 113.828 43.1C113.322 43.27 112.912 43.535 112.586 43.895L105.125 52.358C105.441 51.998 105.862 51.722 106.367 51.563C106.768 51.4328 107.186 51.3647 107.608 51.361C108.029 51.351 108.471 51.404 108.945 51.499C109.503 51.6179 110.049 51.7887 110.576 52.009C110.618 52.029 110.66 52.04 110.702 52.061C112.417 52.804 114.038 54.023 115.301 55.434C115.774 55.964 116.206 56.515 116.574 57.088C116.869 57.555 117.132 58.021 117.342 58.498C117.563 58.986 117.721 59.485 117.826 59.962C117.868 60.174 117.9 60.376 117.932 60.577C118.047 61.691 117.795 62.571 117.248 63.186L124.708 54.723C125.235 54.108 125.498 53.217 125.382 52.114Z" fill="#3C0085"/>
<path d="M117.405 37.606C124.961 40.756 131.622 48.54 132.306 55.009C132.979 61.468 127.413 64.151 119.857 61.001C112.312 57.851 105.64 50.067 104.967 43.609C104.283 37.139 109.86 34.456 117.405 37.606ZM119.236 55.073C122.961 56.632 125.708 55.306 125.371 52.114C125.034 48.922 121.751 45.083 118.026 43.534C114.301 41.986 111.554 43.301 111.891 46.494C112.228 49.674 115.511 53.514 119.236 55.073Z" fill="url(#paint12_linear_3_178)"/>
<path d="M128.4 61.913C127.585 62.1788 126.733 62.3148 125.875 62.316C124.963 62.3236 124.052 62.231 123.16 62.04C122.028 61.7999 120.921 61.4517 119.856 61C119.771 60.969 119.687 60.926 119.592 60.895C116.12 59.389 112.847 56.918 110.269 54.055C109.321 53.0052 108.459 51.8809 107.691 50.693C107.099 49.7798 106.578 48.8223 106.133 47.829C105.703 46.8752 105.372 45.88 105.144 44.859C105.053 44.4466 104.986 44.0292 104.944 43.609C104.713 41.36 105.228 39.568 106.333 38.316L98.873 46.779C97.778 48.031 97.252 49.823 97.483 52.071C97.525 52.485 97.599 52.898 97.683 53.323C97.893 54.298 98.231 55.295 98.673 56.293C99.093 57.246 99.62 58.212 100.23 59.156C100.997 60.344 101.859 61.468 102.808 62.517C105.376 65.381 108.659 67.852 112.132 69.357C112.216 69.4 112.3 69.432 112.395 69.464C113.552 69.941 114.657 70.291 115.699 70.503C116.657 70.704 117.572 70.789 118.414 70.779C119.272 70.7778 120.124 70.6418 120.939 70.376C121.95 70.036 122.802 69.496 123.454 68.753L130.915 60.29C130.273 61.022 129.421 61.573 128.4 61.913Z" fill="#3C0085"/>
<path d="M116.406 43.026C116.962 43.1398 117.505 43.3104 118.027 43.535C119.1 43.98 120.131 44.627 121.068 45.38L124.719 42.315C122.794 40.756 120.794 38.9 116.743 37.352L116.406 43.026Z" fill="url(#paint13_linear_3_178)"/>
<path d="M115.655 52.771L121.074 45.369C121.053 45.347 121.032 45.337 121.011 45.316C120.832 45.178 120.643 45.04 120.464 44.902C120.411 44.87 120.359 44.828 120.306 44.796C120.137 44.6788 119.965 44.5654 119.79 44.456C119.717 44.414 119.654 44.372 119.58 44.329C119.422 44.234 119.264 44.149 119.106 44.054C119.022 44.011 118.928 43.958 118.843 43.916C118.69 43.8395 118.535 43.7652 118.38 43.693L118.033 43.534C117.78 43.4312 117.524 43.3358 117.265 43.248L117.044 43.184C116.865 43.131 116.686 43.089 116.518 43.046C116.476 43.036 116.444 43.036 116.413 43.025L112.445 48.476C113.129 50.099 114.087 51.456 115.655 52.771Z" fill="url(#paint14_linear_3_178)"/>
<path d="M124.728 42.305L121.066 45.37C123.392 47.236 125.139 49.834 125.37 52.114C125.507 53.377 125.149 54.342 124.444 54.946L124.581 54.999L131.368 59.687C132.147 58.488 132.494 56.919 132.295 55.01C131.905 51.255 129.474 47.045 126.033 43.567L124.728 42.305Z" fill="url(#paint15_linear_3_178)"/>
<path d="M125.38 52.114C125.359 51.9075 125.327 51.7023 125.285 51.499C125.274 51.478 125.274 51.446 125.264 51.425C125.2 51.1401 125.115 50.86 125.011 50.587C124.957 50.433 124.897 50.2809 124.832 50.131C124.79 50.046 124.748 49.951 124.706 49.866C124.644 49.7295 124.577 49.5951 124.506 49.463L124.359 49.187C124.285 49.049 124.201 48.922 124.127 48.784L123.969 48.529C123.801 48.2729 123.626 48.0218 123.443 47.776C123.422 47.756 123.412 47.734 123.391 47.713C123.211 47.4852 123.025 47.2625 122.833 47.045C122.78 46.981 122.717 46.917 122.665 46.854C122.444 46.607 122.212 46.3701 121.97 46.144L121.96 46.133C121.689 45.8781 121.408 45.6339 121.118 45.401C121.107 45.391 121.086 45.38 121.076 45.369L115.656 52.761C116.73 53.715 117.961 54.521 119.234 55.062C121.77 56.122 123.843 55.847 124.811 54.564C124.822 54.542 124.843 54.521 124.864 54.5C124.938 54.394 125.011 54.277 125.064 54.16C125.074 54.129 125.095 54.097 125.106 54.076C125.15 53.9741 125.192 53.8714 125.232 53.768C125.291 53.5957 125.333 53.4183 125.359 53.238C125.359 53.217 125.369 53.185 125.369 53.164C125.39 53.037 125.401 52.899 125.401 52.761V52.623C125.401 52.463 125.39 52.294 125.38 52.113V52.114Z" fill="#741783"/>
<path d="M68.168 106.922L112.628 91.236L136.684 99.826C137.273 100.039 137.273 100.877 136.684 101.078L94.444 115.979C94.16 116.074 93.854 116.074 93.571 115.979L68.168 106.922Z" fill="url(#paint16_linear_3_178)"/>
<path opacity="0.1" d="M111.344 102.956L120.825 102.266L127.939 99.753L111.344 96.963V102.956Z" fill="#8596B3"/>
<path d="M111.345 99.773L118.459 80.016L111.345 77.513L104.242 80.016L111.345 99.773Z" fill="#ACBEFB"/>
<path d="M104.242 80.017V100.442L111.345 102.956V82.53L104.242 80.017Z" fill="#7989C1"/>
<path d="M118.457 80.017V100.442L111.344 102.956V82.53L118.457 80.017Z" fill="#292F44"/>
<path opacity="0.1" d="M100.516 106.71L110.007 106.01L117.11 103.507L100.516 95.235V106.71Z" fill="#002766"/>
<path d="M100.517 103.528L107.631 92.328L100.517 89.815L93.414 92.329L100.517 103.528Z" fill="#ACBEFB"/>
<path d="M93.414 92.329V104.196L100.517 106.709V94.831L93.414 92.329Z" fill="#7989C1"/>
<path d="M107.629 92.329V104.196L100.516 106.709V94.831L107.629 92.329Z" fill="#282F44"/>
<path opacity="0.1" d="M89.856 110.517L99.336 109.827L106.45 107.314L89.856 104.524V110.517Z" fill="#002766"/>
<path d="M89.856 107.335L96.969 104.833L89.856 102.319L82.742 104.833L89.856 107.335Z" fill="#ACBEFB"/>
<path d="M82.742 104.833V108.003L89.856 110.517V107.335L82.742 104.833Z" fill="#7989C1"/>
<path d="M96.97 104.833V108.003L89.856 110.517V107.335L96.969 104.833H96.97Z" fill="#282F44"/>
</g>
<defs>
<linearGradient id="paint0_linear_3_178" x1="78.923" y1="159.078" x2="78.923" y2="0" gradientUnits="userSpaceOnUse">
<stop stop-color="#90479B"/>
<stop offset="1" stop-color="#DB68A6"/>
</linearGradient>
<linearGradient id="paint1_linear_3_178" x1="78.922" y1="18.56" x2="78.922" y2="140.519" gradientUnits="userSpaceOnUse">
<stop stop-color="#2D0C5B"/>
<stop offset="1" stop-color="#2D0C5B" stop-opacity="0"/>
</linearGradient>
<linearGradient id="paint2_linear_3_178" x1="26.609" y1="61.522" x2="110.61" y2="61.522" gradientUnits="userSpaceOnUse">
<stop offset="0.45" stop-color="#DFE6F7"/>
<stop offset="0.55" stop-color="#CAD4E8"/>
</linearGradient>
<linearGradient id="paint3_linear_3_178" x1="27.53" y1="114.135" x2="165.005" y2="114.135" gradientUnits="userSpaceOnUse">
<stop offset="0.37" stop-color="#DFE6F7"/>
<stop offset="0.424" stop-color="#CAD4E8"/>
</linearGradient>
<linearGradient id="paint4_linear_3_178" x1="69.541" y1="15.847" x2="69.541" y2="108.9" gradientUnits="userSpaceOnUse">
<stop stop-color="#9471BE"/>
<stop offset="1" stop-color="#B797DD"/>
</linearGradient>
<linearGradient id="paint5_linear_3_178" x1="27.53" y1="103.05" x2="165.005" y2="103.05" gradientUnits="userSpaceOnUse">
<stop stop-color="white"/>
<stop offset="1" stop-color="#EBEFF7"/>
</linearGradient>
<linearGradient id="paint6_linear_3_178" x1="69.543" y1="24.72" x2="84.188" y2="83.015" gradientUnits="userSpaceOnUse">
<stop stop-color="#AF92D1"/>
<stop offset="1" stop-color="#AF92D1" stop-opacity="0.25"/>
</linearGradient>
<linearGradient id="paint7_linear_3_178" x1="75.71" y1="79.689" x2="54.394" y2="43.054" gradientUnits="userSpaceOnUse">
<stop stop-color="#FEBE8F"/>
<stop offset="1" stop-color="#F78D6D"/>
</linearGradient>
<linearGradient id="paint8_linear_3_178" x1="40.761" y1="64.124" x2="77.423" y2="64.124" gradientUnits="userSpaceOnUse">
<stop stop-color="#A32B62"/>
<stop offset="1" stop-color="#F27E5F"/>
</linearGradient>
<linearGradient id="paint9_linear_3_178" x1="89.785" y1="53.499" x2="75.459" y2="28.878" gradientUnits="userSpaceOnUse">
<stop stop-color="#FEBE8F"/>
<stop offset="1" stop-color="#F78D6D"/>
</linearGradient>
<linearGradient id="paint10_linear_3_178" x1="71.005" y1="51.805" x2="96.062" y2="51.805" gradientUnits="userSpaceOnUse">
<stop stop-color="#A32B62"/>
<stop offset="1" stop-color="#F27E5F"/>
</linearGradient>
<linearGradient id="paint11_linear_3_178" x1="68.531" y1="41.554" x2="77.136" y2="41.554" gradientUnits="userSpaceOnUse">
<stop stop-color="#A32B62"/>
<stop offset="1" stop-color="#F27E5F"/>
</linearGradient>
<linearGradient id="paint12_linear_3_178" x1="104.909" y1="49.3" x2="132.361" y2="49.3" gradientUnits="userSpaceOnUse">
<stop stop-color="#4E34B0"/>
<stop offset="1" stop-color="#431DAB"/>
</linearGradient>
<linearGradient id="paint13_linear_3_178" x1="116.398" y1="41.359" x2="124.73" y2="41.359" gradientUnits="userSpaceOnUse">
<stop stop-color="#FEBE8F"/>
<stop offset="1" stop-color="#F78D6D"/>
</linearGradient>
<linearGradient id="paint14_linear_3_178" x1="112.436" y1="47.897" x2="121.068" y2="47.897" gradientUnits="userSpaceOnUse">
<stop stop-color="#A32B62"/>
<stop offset="1" stop-color="#F27E5F"/>
</linearGradient>
<linearGradient id="paint15_linear_3_178" x1="131.656" y1="59.518" x2="122.421" y2="43.646" gradientUnits="userSpaceOnUse">
<stop stop-color="#90479B"/>
<stop offset="1" stop-color="#DB68A6"/>
</linearGradient>
<linearGradient id="paint16_linear_3_178" x1="75.48" y1="119.687" x2="130.264" y2="88.303" gradientUnits="userSpaceOnUse">
<stop stop-color="#DFE6F7"/>
<stop offset="1" stop-color="#CED3EA"/>
</linearGradient>
<clipPath id="clip0_3_178">
<rect width="166" height="160" fill="white"/>
</clipPath>
</defs>
</svg>
