<svg width="150" height="166" viewBox="0 0 150 166" fill="none" xmlns="http://www.w3.org/2000/svg">
<g clip-path="url(#clip0_3_357)">
<path d="M75 165.21C116.421 165.21 150 131.632 150 90.21C150 48.789 116.421 15.21 75 15.21C33.579 15.21 0 48.79 0 90.21C0 131.632 33.579 165.21 75 165.21Z" fill="url(#paint0_linear_3_357)"/>
<path opacity="0.5" d="M11.602 109.99L75.172 165.2C112.592 165.11 143.572 137.63 149.112 101.73L139.002 97.7L11.602 109.99Z" fill="#331E77"/>
<path d="M11.602 105.6V109.99L65.292 140.99V136.59L11.602 105.6Z" fill="#F8F8F8"/>
<path d="M139.003 93.31V97.7L65.293 140.99V136.59L139.003 93.31Z" fill="#D8DAE8"/>
<path d="M11.602 105.6L85.322 62.31L139.002 93.31L65.292 136.59L11.602 105.6Z" fill="#E8EAEF"/>
<path d="M14.922 101.38L85.682 59.83L135.682 88.7L64.922 130.25L14.922 101.38Z" fill="#E8EAEF"/>
<path d="M14.922 101.38V105.58L64.922 134.45V130.25L14.922 101.38Z" fill="#F8F8F8"/>
<path d="M64.922 130.02V134.22L135.682 92.67V88.47L64.922 130.02Z" fill="#D8DAE8"/>
<path d="M18.852 97.16L86.002 57.73L131.762 84.14L64.602 123.58L18.852 97.16Z" fill="#EFF1F4"/>
<path d="M64.602 123.58V127.9L131.762 88.47V84.14L64.602 123.58Z" fill="#D8DAE8"/>
<path d="M18.852 97.16V101.49L64.602 127.9V123.58L18.852 97.16Z" fill="#F8F8F8"/>
<path d="M33.18 68.26L86.03 37.23L117.42 55.35L64.57 86.38L33.18 68.26Z" fill="white"/>
<path d="M64.57 82.06V115.23L117.42 84.2V51.03L64.57 82.06Z" fill="url(#paint1_linear_3_357)"/>
<path d="M87.922 84.08V101.61L98.182 95.5V77.97L87.922 84.08Z" fill="#C7CBDD"/>
<path d="M33.18 68.26V97.11L64.57 115.23V86.38L33.18 68.26Z" fill="url(#paint2_linear_3_357)"/>
<path d="M64.02 78.66C62.55 77.81 60.16 77.82 58.69 78.67C57.21 79.52 57.2 80.9 58.67 81.75C60.14 82.6 62.53 82.59 64 81.74C65.48 80.89 65.49 79.51 64.02 78.66Z" fill="#1C2958"/>
<path d="M61.883 114.69V81.37L57.043 81.38V114.7C57.043 115.06 57.273 115.42 57.743 115.69C58.683 116.24 60.223 116.23 61.163 115.68C61.643 115.41 61.883 115.05 61.883 114.69Z" fill="url(#paint3_linear_3_357)"/>
<path d="M72.32 114.69V81.37L67.48 81.38V114.7C67.48 115.06 67.71 115.42 68.18 115.69C69.12 116.24 70.66 116.23 71.6 115.68C72.09 115.41 72.32 115.05 72.32 114.69Z" fill="url(#paint4_linear_3_357)"/>
<path d="M53.723 109.94V76.62L48.883 76.63V109.95C48.883 110.31 49.113 110.67 49.583 110.94C50.523 111.49 52.063 111.48 53.003 110.93C53.483 110.66 53.713 110.3 53.723 109.94Z" fill="url(#paint5_linear_3_357)"/>
<path d="M81.633 109.94V76.62L76.793 76.63V109.95C76.793 110.31 77.023 110.67 77.493 110.94C78.433 111.49 79.973 111.48 80.913 110.93C81.393 110.66 81.633 110.3 81.633 109.94Z" fill="url(#paint6_linear_3_357)"/>
<path d="M109.543 92.96V59.65L104.703 59.66V92.98C104.703 93.34 104.933 93.7 105.403 93.97C106.343 94.52 107.883 94.51 108.823 93.96C109.303 93.68 109.543 93.32 109.543 92.96Z" fill="url(#paint7_linear_3_357)"/>
<path d="M118.852 88.22V54.9L114.012 54.91V88.23C114.012 88.59 114.242 88.95 114.712 89.22C115.652 89.77 117.192 89.76 118.132 89.21C118.612 88.93 118.852 88.58 118.852 88.22Z" fill="url(#paint8_linear_3_357)"/>
<path d="M45.55 105.19V71.88L40.71 71.89V105.21C40.71 105.57 40.94 105.93 41.41 106.2C42.35 106.75 43.89 106.74 44.83 106.19C45.31 105.91 45.55 105.55 45.55 105.19Z" fill="url(#paint9_linear_3_357)"/>
<path d="M37.383 100.451V67.131L32.543 67.141V100.461C32.543 100.821 32.773 101.181 33.243 101.451C34.183 102.001 35.723 101.991 36.663 101.441C37.143 101.161 37.383 100.801 37.383 100.451Z" fill="url(#paint10_linear_3_357)"/>
<path d="M28.063 69.58L85.333 35.95L122.623 57.48L65.363 91.11L28.063 69.58Z" fill="white"/>
<path d="M65.363 91.11V95.14L122.623 61.51V57.48L65.363 91.11ZM28.063 69.58V73.61L65.363 95.14V91.11L28.063 69.58Z" fill="#EAECF4"/>
<path d="M46.132 55.59C46.132 55.91 66.022 92.37 66.022 92.37L25.602 68.95L46.132 55.59Z" fill="#F8F8F8"/>
<path d="M46.133 55.59L106.393 19.77L126.273 56.55L66.013 92.37L46.133 55.59Z" fill="url(#paint11_linear_3_357)"/>
<path d="M33.773 68.74L44.523 61.75C46.383 65.27 49.613 71.22 54.953 81.01L33.773 68.74Z" fill="#DDDEEA"/>
<path opacity="0.25" d="M98.182 95.49L87.922 89.57V84.08L98.182 77.97V95.49Z" fill="#A7AEC6"/>
<path d="M61.482 54.8L54.822 60.33C60.402 55.66 62.652 47.31 59.922 37.89C55.812 23.71 42.102 12.46 29.262 12.81C24.942 12.94 21.302 14.32 18.492 16.66L25.152 11.13C27.962 8.78998 31.642 7.40998 35.922 7.27998C48.762 6.92998 62.512 18.18 66.582 32.36C69.262 41.78 67.062 50.17 61.482 54.8Z" fill="#845F0A"/>
<path d="M61.482 54.8L54.822 60.33C60.402 55.66 62.652 47.31 59.922 37.89C55.812 23.71 42.102 12.46 29.262 12.81C24.942 12.94 21.302 14.32 18.492 16.66L25.152 11.13C27.962 8.78998 31.642 7.40998 35.922 7.27998C48.762 6.92998 62.512 18.18 66.582 32.36C69.262 41.78 67.062 50.17 61.482 54.8Z" fill="#845F0A"/>
<path d="M35.88 7.27C48.72 6.92 62.47 18.17 66.54 32.35C70.65 46.53 63.51 58.34 50.67 58.64C37.83 58.99 24.08 47.74 20.01 33.56C15.95 19.38 23.04 7.58 35.88 7.27Z" fill="#FF9D45"/>
<path d="M61.48 54.8L54.82 60.33C52.01 62.67 48.33 64.05 44.05 64.18C31.21 64.53 17.46 53.28 13.4 39.1C10.68 29.67 12.92 21.28 18.5 16.66L25.16 11.13C19.58 15.76 17.38 24.15 20.06 33.57C24.17 47.75 37.88 59 50.72 58.65C54.99 58.56 58.67 57.13 61.48 54.8Z" fill="#858585"/>
<path d="M66.58 60.94L59.92 66.47C56.33 69.45 51.62 71.27 46.13 71.4C29.66 71.83 12.06 57.43 6.82 39.23C3.32 27.12 6.17 16.4 13.35 10.43L20.01 4.89999C12.88 10.87 10.02 21.59 13.48 33.7C18.71 51.9 36.31 66.3 52.79 65.87C58.28 65.74 62.99 63.96 66.58 60.94Z" fill="#FF9D45"/>
<path d="M33.809 0.00999534C50.289 -0.420005 67.879 13.98 73.119 32.14C78.349 50.34 69.269 65.44 52.799 65.87C36.309 66.3 18.719 51.9 13.479 33.69C8.24901 15.53 17.329 0.439995 33.809 0.00999534ZM50.709 58.65C63.549 58.3 70.639 46.54 66.579 32.36C62.479 18.17 48.769 6.93 35.929 7.27C23.079 7.62 15.989 19.38 20.059 33.56C24.119 47.75 37.869 58.99 50.709 58.65Z" fill="url(#paint12_linear_3_357)"/>
<path d="M122.951 32.51L126.931 33.77C126.841 33.84 126.711 33.89 126.621 33.96L122.641 32.7C122.731 32.64 122.831 32.59 122.951 32.51Z" fill="#CA9210"/>
<path d="M122.642 32.71L126.622 33.97C125.172 34.9 123.832 36.23 122.722 37.83L118.742 36.57C119.842 34.97 121.162 33.65 122.642 32.71Z" fill="#CF9610"/>
<path d="M118.71 36.58L122.69 37.84C122.4 38.24 122.13 38.66 121.89 39.09L117.91 37.83C118.15 37.4 118.43 36.98 118.71 36.58Z" fill="#CA9210"/>
<path d="M117.92 37.84L121.9 39.1C121.71 39.43 121.5 39.79 121.32 40.14L117.34 38.88C117.52 38.52 117.73 38.19 117.92 37.84Z" fill="#C58F10"/>
<path d="M117.342 38.9L121.322 40.16C121.152 40.48 121.012 40.78 120.882 41.11L116.902 39.85C117.032 39.52 117.192 39.18 117.342 38.9Z" fill="#C08B0F"/>
<path d="M116.892 39.83L120.872 41.09C120.752 41.38 120.612 41.69 120.492 41.98L116.512 40.72C116.662 40.41 116.772 40.12 116.892 39.83Z" fill="#BB870F"/>
<path d="M116.542 40.71L120.522 41.97C120.402 42.26 120.312 42.55 120.222 42.83L116.242 41.57C116.312 41.29 116.422 41 116.542 40.71Z" fill="#B6840E"/>
<path d="M116.223 41.58L120.203 42.84C120.113 43.12 120.023 43.4 119.933 43.69L115.953 42.43C116.023 42.11 116.113 41.83 116.223 41.58Z" fill="#B1800E"/>
<path d="M115.931 42.4L119.911 43.66C119.821 43.94 119.751 44.21 119.691 44.48L115.711 43.22C115.781 42.95 115.871 42.67 115.931 42.4Z" fill="#AC7C0E"/>
<path d="M115.713 43.22L119.693 44.48C119.623 44.75 119.563 45.02 119.503 45.32L115.523 44.06C115.593 43.79 115.663 43.52 115.713 43.22Z" fill="#A7790D"/>
<path d="M115.521 44.06L119.501 45.32C119.431 45.59 119.381 45.89 119.351 46.17L115.371 44.91C115.401 44.63 115.471 44.36 115.521 44.06Z" fill="#A2750D"/>
<path d="M115.351 44.93L119.331 46.19C119.281 46.49 119.251 46.77 119.191 47.07L115.211 45.81C115.271 45.51 115.321 45.21 115.351 44.93Z" fill="#9D710C"/>
<path d="M115.242 45.79L119.222 47.05C119.182 47.37 119.152 47.66 119.132 47.97L115.152 46.71C115.172 46.4 115.182 46.09 115.242 45.79Z" fill="#986E0C"/>
<path d="M115.15 46.71L119.13 47.97C119.1 48.32 119.08 48.63 119.07 48.97L115.09 47.71C115.1 47.37 115.1 47.04 115.15 46.71Z" fill="#936A0C"/>
<path d="M115.082 47.68L119.062 48.94C119.042 49.31 119.042 49.68 119.062 50.06L115.082 48.8C115.072 48.45 115.072 48.08 115.082 47.68Z" fill="#8E660B"/>
<path d="M115.082 48.81L119.062 50.07C119.082 50.46 119.102 50.87 119.152 51.28C119.152 51.34 119.172 51.39 119.162 51.46L115.182 50.2C115.182 50.14 115.162 50.09 115.172 50.02C115.122 49.61 115.102 49.22 115.082 48.81Z" fill="#89630B"/>
<path d="M115.191 50.19L119.171 51.45C119.651 55.46 121.601 58.15 124.141 58.97L120.161 57.71C117.611 56.89 115.691 54.19 115.191 50.19Z" fill="#845F0A"/>
<path d="M115.191 50.19L119.171 51.45C119.651 55.46 121.601 58.15 124.141 58.97L120.161 57.71C117.611 56.89 115.691 54.19 115.191 50.19Z" fill="#845F0A"/>
<path d="M115.191 50.19L119.171 51.45C119.651 55.46 121.601 58.15 124.141 58.97L120.161 57.71C117.611 56.89 115.691 54.19 115.191 50.19Z" fill="#845F0A"/>
<path d="M128.413 31.65L132.393 32.91C132.293 32.89 132.223 32.86 132.113 32.82L128.133 31.56C128.243 31.6 128.313 31.63 128.413 31.65Z" fill="#A2750D"/>
<path d="M128.143 31.58L132.123 32.84C131.953 32.79 131.753 32.76 131.593 32.73L127.613 31.47C127.773 31.5 127.963 31.54 128.143 31.58Z" fill="#A7790D"/>
<path d="M127.613 31.48L131.592 32.74C131.402 32.73 131.232 32.68 131.042 32.67L127.062 31.41C127.252 31.42 127.413 31.44 127.613 31.48Z" fill="#AC7C0E"/>
<path d="M127.064 31.41L131.044 32.67C130.854 32.66 130.674 32.65 130.464 32.67L126.484 31.41C126.664 31.4 126.874 31.4 127.064 31.41Z" fill="#B1800E"/>
<path d="M126.485 31.41L130.465 32.67C130.255 32.67 130.075 32.69 129.875 32.71L125.895 31.45C126.105 31.43 126.275 31.41 126.485 31.41Z" fill="#B6840E"/>
<path d="M125.894 31.46L129.874 32.72C129.674 32.75 129.444 32.78 129.234 32.85L125.254 31.59C125.474 31.52 125.674 31.49 125.894 31.46Z" fill="#BB870F"/>
<path d="M125.255 31.58L129.235 32.84C129.005 32.88 128.765 32.95 128.535 33.05L124.555 31.79C124.785 31.69 125.005 31.63 125.255 31.58Z" fill="#C08B0F"/>
<path d="M124.545 31.77L128.525 33.03C128.255 33.11 127.975 33.24 127.695 33.36L123.715 32.1C123.995 31.97 124.265 31.89 124.545 31.77Z" fill="#C58F10"/>
<path d="M123.723 32.12L127.703 33.38C127.443 33.49 127.173 33.64 126.933 33.77L122.953 32.51C123.193 32.38 123.463 32.23 123.723 32.12Z" fill="#CA9210"/>
<path d="M115.191 50.19L119.171 51.45C119.651 55.46 121.601 58.15 124.141 58.97L120.161 57.71C117.611 56.89 115.691 54.19 115.191 50.19Z" fill="#845F0A"/>
<path d="M125.641 56.84L129.621 58.1C129.351 58.25 129.101 58.38 128.851 58.49L124.871 57.23C125.131 57.12 125.371 56.98 125.641 56.84Z" fill="#CCCCCC"/>
<path d="M124.873 57.23L128.853 58.49C128.573 58.61 128.313 58.72 128.023 58.82L124.043 57.56C124.313 57.47 124.603 57.38 124.873 57.23Z" fill="#C7C7C7"/>
<path d="M124.052 57.58L128.032 58.84C127.792 58.91 127.552 58.99 127.332 59.05L123.352 57.79C123.572 57.73 123.812 57.66 124.052 57.58Z" fill="#C2C2C2"/>
<path d="M123.343 57.77L127.323 59.03C127.103 59.09 126.903 59.12 126.683 59.16L122.703 57.9C122.923 57.86 123.123 57.83 123.343 57.77Z" fill="#BDBDBD"/>
<path d="M122.692 57.89L126.672 59.15C126.472 59.18 126.272 59.2 126.082 59.19L122.102 57.93C122.292 57.95 122.492 57.92 122.692 57.89Z" fill="#B8B8B8"/>
<path d="M122.103 57.94L126.083 59.2C125.903 59.21 125.693 59.22 125.503 59.2L121.523 57.94C121.723 57.95 121.903 57.96 122.103 57.94Z" fill="#B3B3B3"/>
<path d="M121.53 57.94L125.51 59.2C125.325 59.197 125.14 59.1736 124.96 59.13L120.98 57.87C121.16 57.92 121.34 57.93 121.53 57.94Z" fill="#ADADAD"/>
<path d="M120.991 57.9L124.971 59.16C124.771 59.12 124.611 59.1 124.441 59.05L120.461 57.79C120.621 57.81 120.801 57.86 120.991 57.9Z" fill="#A8A8A8"/>
<path d="M120.452 57.77L124.432 59.03C124.332 59.01 124.262 58.98 124.152 58.94L120.172 57.68C120.252 57.73 120.352 57.75 120.452 57.77Z" fill="#A3A3A3"/>
<path d="M122.97 62.63L119 61.37C121.11 62.04 123.53 61.73 126 60.27L129.98 61.53C127.49 62.97 125.07 63.28 122.97 62.63Z" fill="#FF9D45"/>
<path d="M122.97 62.63L119 61.37C121.11 62.04 123.53 61.73 126 60.27L129.98 61.53C127.49 62.97 125.07 63.28 122.97 62.63Z" fill="#FF9D45"/>
<path d="M126.021 60.26L130.001 61.52C129.661 61.73 129.341 61.89 129.011 62.04L125.031 60.78C125.361 60.63 125.681 60.46 126.021 60.26Z" fill="#FF9D45"/>
<path d="M125.032 60.78L129.012 62.04C128.652 62.19 128.322 62.34 127.972 62.46L123.992 61.2C124.342 61.08 124.672 60.93 125.032 60.78ZM123.971 61.2L127.951 62.46C127.631 62.57 127.341 62.66 127.031 62.73L123.051 61.47C123.381 61.4 123.671 61.3 123.971 61.2Z" fill="#FF9D45"/>
<path d="M123.082 61.47L127.062 62.73C126.792 62.7944 126.518 62.8412 126.242 62.87L122.262 61.61C122.522 61.58 122.802 61.52 123.082 61.47Z" fill="#FF9D45"/>
<path d="M122.262 61.61L126.242 62.87C125.992 62.92 125.722 62.94 125.472 62.93L121.492 61.67C121.742 61.68 122.002 61.65 122.262 61.61ZM121.502 61.69L125.482 62.95C125.242 62.96 124.992 62.95 124.742 62.93L120.762 61.67C120.992 61.7 121.242 61.71 121.502 61.69Z" fill="#FF9D45"/>
<path d="M120.77 61.67L124.75 62.93C124.5 62.92 124.28 62.89 124.05 62.87L120.07 61.61C120.29 61.63 120.52 61.66 120.77 61.67Z" fill="#FF9D45"/>
<path d="M120.073 61.61L124.053 62.87C123.823 62.82 123.593 62.79 123.363 62.74L119.383 61.48C119.603 61.5 119.813 61.57 120.073 61.61Z" fill="#FF9D45"/>
<path d="M119.371 61.45L123.351 62.71C123.241 62.67 123.121 62.66 123.011 62.62L119.031 61.36C119.131 61.4 119.241 61.45 119.371 61.45Z" fill="#FF9D45"/>
<path d="M128.41 31.65L132.39 32.91C134.96 33.72 136.87 36.39 137.36 40.43L133.38 39.17C132.89 35.16 130.97 32.46 128.41 31.65Z" fill="#858585"/>
<path d="M133.379 39.17L137.359 40.43C137.359 40.49 137.379 40.54 137.369 40.61C137.419 41.01 137.439 41.4 137.459 41.82L133.479 40.56C133.459 40.17 133.439 39.76 133.389 39.35C133.399 39.28 133.399 39.22 133.379 39.17Z" fill="#8A8A8A"/>
<path d="M133.492 40.55L137.472 41.81C137.472 42.17 137.492 42.56 137.472 42.93L133.492 41.67C133.522 41.27 133.522 40.9 133.492 40.55Z" fill="#8F8F8F"/>
<path d="M133.509 41.66L137.489 42.92C137.479 43.26 137.469 43.57 137.429 43.92L133.449 42.66C133.479 42.31 133.489 41.98 133.509 41.66Z" fill="#949494"/>
<path d="M133.442 42.64L137.422 43.9C137.402 44.21 137.352 44.51 137.332 44.82L133.352 43.56C133.412 43.26 133.422 42.95 133.442 42.64Z" fill="#999999"/>
<path d="M133.351 43.56L137.331 44.82C137.301 45.11 137.251 45.4 137.191 45.7L133.211 44.44C133.271 44.14 133.321 43.84 133.351 43.56Z" fill="#9E9E9E"/>
<path d="M133.213 44.44L137.193 45.7C137.143 46 137.102 46.26 137.042 46.55L133.062 45.29C133.122 44.99 133.183 44.72 133.213 44.44Z" fill="#A3A3A3"/>
<path d="M133.061 45.29L137.041 46.55C136.971 46.82 136.921 47.12 136.851 47.39L132.871 46.13C132.931 45.83 133.001 45.56 133.061 45.29Z" fill="#A8A8A8"/>
<path d="M132.88 46.13L136.86 47.39C136.79 47.66 136.7 47.94 136.64 48.21L132.66 46.95C132.72 46.68 132.79 46.41 132.88 46.13Z" fill="#ADADAD"/>
<path d="M132.629 46.96L136.609 48.22C136.519 48.5 136.429 48.78 136.339 49.07L132.359 47.81C132.469 47.52 132.569 47.24 132.629 46.96Z" fill="#B3B3B3"/>
<path d="M132.382 47.8L136.362 49.06C136.272 49.34 136.152 49.64 136.062 49.92L132.082 48.66C132.162 48.35 132.272 48.09 132.382 47.8Z" fill="#B8B8B8"/>
<path d="M132.052 48.64L136.032 49.9C135.912 50.19 135.802 50.49 135.652 50.79L131.672 49.53C131.812 49.23 131.932 48.94 132.052 48.64Z" fill="#BDBDBD"/>
<path d="M131.67 49.53L135.65 50.79L135.21 51.74L131.23 50.48C131.4 50.17 131.53 49.84 131.67 49.53Z" fill="#C2C2C2"/>
<path d="M131.232 50.48L135.212 51.74C135.032 52.09 134.842 52.44 134.632 52.78L130.652 51.52C130.862 51.19 131.052 50.84 131.232 50.48Z" fill="#C7C7C7"/>
<path d="M130.671 51.51L134.651 52.77C134.391 53.22 134.141 53.63 133.851 54.02L129.871 52.76C130.131 52.38 130.411 51.96 130.671 51.51Z" fill="#CCCCCC"/>
<path d="M129.849 52.78L133.829 54.04C132.729 55.64 131.389 56.97 129.929 57.9L125.949 56.64C127.409 55.71 128.739 54.38 129.849 52.78Z" fill="#D1D1D1"/>
<path d="M125.951 56.64L129.931 57.9C129.841 57.97 129.711 58.02 129.621 58.09L125.641 56.83C125.731 56.77 125.861 56.71 125.951 56.64Z" fill="#CCCCCC"/>
<path d="M129.571 27.99L133.551 29.25C136.891 30.3 139.381 33.82 139.951 39.1C140.921 47.7 136.461 57.74 130.011 61.52L126.031 60.26C132.481 56.48 136.941 46.45 135.971 37.84C135.391 32.56 132.911 29.04 129.571 27.99Z" fill="#DB9812"/>
<path d="M129.571 27.99L133.551 29.25C136.891 30.3 139.381 33.82 139.951 39.1C140.921 47.7 136.461 57.74 130.011 61.52L126.031 60.26C132.481 56.48 136.941 46.45 135.971 37.84C135.391 32.56 132.911 29.04 129.571 27.99Z" fill="#FF9D45"/>
<path d="M129.57 27.99L133.55 29.25C136.83 30.3 139.31 33.73 139.94 38.86L135.96 37.6C135.32 32.47 132.84 29.04 129.57 27.99ZM135.949 37.61L139.929 38.87C139.939 38.96 139.929 39.02 139.969 39.1C140.039 39.62 140.069 40.12 140.079 40.63L136.099 39.37C136.089 38.86 136.049 38.33 135.989 37.84C135.969 37.78 135.959 37.69 135.949 37.61ZM136.078 39.37L140.058 40.63C140.078 41.11 140.068 41.57 140.068 42.06L136.088 40.8C136.098 40.34 136.098 39.85 136.078 39.37ZM136.08 40.8L140.06 42.06C140.06 42.48 140.02 42.9 140 43.33L136.02 42.07C136.06 41.66 136.08 41.22 136.08 40.8Z" fill="#FF9D45"/>
<path d="M136.021 42.07L140.001 43.33C139.951 43.71 139.941 44.11 139.871 44.51L135.891 43.25C135.971 42.86 136.011 42.47 136.021 42.07Z" fill="#FF9D45"/>
<path d="M135.922 43.24L139.902 44.5C139.852 44.88 139.792 45.24 139.742 45.6L135.762 44.34C135.812 43.98 135.872 43.62 135.922 43.24ZM135.739 44.38L139.719 45.64C139.659 46 139.579 46.37 139.519 46.73L135.539 45.47C135.619 45.1 135.679 44.74 135.739 44.38Z" fill="#FF9D45"/>
<path d="M135.541 45.47L139.521 46.73C139.441 47.1 139.371 47.43 139.281 47.8L135.301 46.54C135.391 46.17 135.451 45.81 135.541 45.47ZM135.269 46.53L139.249 47.79C139.159 48.13 139.069 48.5 138.949 48.86L134.969 47.6C135.089 47.24 135.179 46.9 135.269 46.53Z" fill="#FF9D45"/>
<path d="M134.989 47.59L138.969 48.85C138.849 49.21 138.739 49.59 138.609 49.92L134.629 48.66C134.769 48.32 134.889 47.97 134.989 47.59ZM134.64 48.68L138.62 49.94C138.5 50.3 138.35 50.66 138.21 51.03L134.23 49.77C134.38 49.4 134.52 49.03 134.64 48.68ZM134.23 49.77L138.21 51.03C138.06 51.4 137.9 51.8 137.73 52.18L133.75 50.92C133.92 50.51 134.09 50.13 134.23 49.77Z" fill="#FF9D45"/>
<path d="M133.769 50.88L137.749 52.14C137.559 52.55 137.369 52.94 137.179 53.36L133.199 52.1C133.399 51.71 133.579 51.29 133.769 50.88Z" fill="#FF9D45"/>
<path d="M133.199 52.1L137.179 53.36C136.949 53.82 136.719 54.26 136.449 54.71L132.469 53.45C132.709 53.01 132.969 52.56 133.199 52.1Z" fill="#FF9D45"/>
<path d="M132.471 53.44L136.451 54.7C136.121 55.27 135.771 55.81 135.421 56.33L131.441 55.07C131.791 54.53 132.141 54.01 132.471 53.44Z" fill="#FF9D45"/>
<path d="M131.432 55.04L135.412 56.3C133.982 58.34 132.292 60.07 130.402 61.25L126.422 59.99C128.292 58.83 129.992 57.12 131.432 55.04ZM126.43 60.02L130.37 61.27C130.25 61.35 130.11 61.44 129.98 61.5L126 60.24C126.16 60.17 126.28 60.09 126.43 60.02Z" fill="#FF9D45"/>
<path d="M126.021 60.26C119.571 64.04 113.571 60.12 112.601 51.52C111.631 42.92 116.091 32.88 122.541 29.1C128.991 25.32 134.991 29.24 135.961 37.84C136.931 46.44 132.471 56.48 126.021 60.26ZM122.951 32.51C117.931 35.46 114.431 43.28 115.201 50C115.941 56.73 120.631 59.78 125.671 56.82C130.691 53.87 134.191 46.05 133.421 39.33C132.651 32.61 127.981 29.59 122.951 32.51Z" fill="url(#paint13_linear_3_357)"/>
<path d="M125.64 56.84C120.62 59.79 115.93 56.73 115.17 50.02C114.43 43.29 117.9 35.48 122.92 32.53C127.94 29.58 132.63 32.64 133.39 39.35C134.16 46.06 130.69 53.88 125.64 56.84Z" fill="#FF9D45"/>
<g filter="url(#filter0_d_3_357)">
<path d="M121 116H28C24.6863 116 22 118.686 22 122V140C22 143.314 24.6863 146 28 146H121C124.314 146 127 143.314 127 140V122C127 118.686 124.314 116 121 116Z" fill="url(#paint14_linear_3_357)"/>
</g>
<path d="M32.414 135.685C32.4143 135.762 32.4448 135.835 32.499 135.889C32.5531 135.943 32.6265 135.974 32.703 135.974H34.388C34.54 135.974 34.661 135.837 34.661 135.685V125.938C34.661 125.786 34.54 125.649 34.388 125.649H32.991L30.775 127.38C30.7231 127.445 30.6914 127.525 30.684 127.608V128.564C30.684 128.716 30.805 128.853 30.957 128.853H32.414V135.685ZM41.13 135.685C41.13 135.837 41.251 135.974 41.418 135.974H43.103C43.255 135.974 43.377 135.837 43.377 135.685V125.938C43.377 125.786 43.255 125.649 43.103 125.649H41.707L39.49 127.38C39.4381 127.445 39.4064 127.525 39.399 127.608V128.564C39.399 128.716 39.52 128.853 39.672 128.853H41.13V135.685ZM49.845 135.685C49.845 135.837 49.967 135.974 50.133 135.974H51.819C51.971 135.974 52.092 135.837 52.092 135.685V125.938C52.092 125.786 51.971 125.649 51.819 125.649H50.422L48.205 127.38C48.1534 127.446 48.1222 127.525 48.115 127.608V128.564C48.115 128.716 48.235 128.853 48.387 128.853H49.845V135.685ZM61.142 136.126C63.617 136.126 65.029 134.137 65.029 130.812C65.029 127.487 63.617 125.498 61.142 125.498C58.668 125.498 57.256 127.487 57.256 130.812C57.256 134.137 58.668 136.126 61.142 136.126ZM61.142 133.924C60.216 133.924 59.7 132.816 59.7 130.812C59.7 128.823 60.216 127.699 61.142 127.699C62.069 127.699 62.585 128.823 62.585 130.812C62.585 132.816 62.069 133.924 61.142 133.924ZM71.027 135.685C71.027 135.837 71.148 135.974 71.315 135.974H73.001C73.152 135.974 73.274 135.837 73.274 135.685V125.938C73.274 125.786 73.152 125.649 73.001 125.649H71.604L69.387 127.38C69.3352 127.446 69.3036 127.525 69.296 127.608V128.564C69.296 128.716 69.417 128.853 69.569 128.853H71.027V135.685ZM79.742 135.685C79.742 135.837 79.863 135.974 80.03 135.974H81.716C81.868 135.974 81.989 135.837 81.989 135.685V125.938C81.989 125.786 81.868 125.649 81.716 125.649H80.319L78.102 127.38C78.0505 127.446 78.0193 127.525 78.012 127.608V128.564C78.012 128.716 78.132 128.853 78.284 128.853H79.742V135.685ZM91.04 136.126C93.514 136.126 94.926 134.137 94.926 130.812C94.926 127.487 93.514 125.498 91.04 125.498C88.565 125.498 87.153 127.487 87.153 130.812C87.153 134.137 88.565 136.126 91.039 136.126H91.04ZM91.04 133.924C90.113 133.924 89.597 132.816 89.597 130.812C89.597 128.823 90.113 127.699 91.04 127.699C91.966 127.699 92.482 128.823 92.482 130.812C92.482 132.816 91.966 133.924 91.04 133.924ZM103.55 136.126C106.025 136.126 107.437 134.137 107.437 130.812C107.437 127.487 106.025 125.498 103.55 125.498C101.076 125.498 99.664 127.487 99.664 130.812C99.664 134.137 101.076 136.126 103.55 136.126ZM103.55 133.924C102.624 133.924 102.108 132.816 102.108 130.812C102.108 128.823 102.624 127.699 103.55 127.699C104.477 127.699 104.993 128.823 104.993 130.812C104.993 132.816 104.477 133.924 103.55 133.924ZM113.435 135.685C113.435 135.837 113.556 135.974 113.723 135.974H115.409C115.56 135.974 115.682 135.837 115.682 135.685V125.938C115.682 125.786 115.56 125.649 115.409 125.649H114.012L111.795 127.38C111.743 127.446 111.712 127.525 111.704 127.608V128.564C111.704 128.716 111.825 128.853 111.977 128.853H113.435V135.685Z" fill="white"/>
</g>
<defs>
<filter id="filter0_d_3_357" x="12" y="110" width="125" height="50" filterUnits="userSpaceOnUse" color-interpolation-filters="sRGB">
<feFlood flood-opacity="0" result="BackgroundImageFix"/>
<feColorMatrix in="SourceAlpha" type="matrix" values="0 0 0 0 0 0 0 0 0 0 0 0 0 0 0 0 0 0 127 0" result="hardAlpha"/>
<feOffset dy="4"/>
<feGaussianBlur stdDeviation="5"/>
<feColorMatrix type="matrix" values="0 0 0 0 0.101961 0 0 0 0 0.207843 0 0 0 0 0.0941176 0 0 0 0.15 0"/>
<feBlend mode="normal" in2="BackgroundImageFix" result="effect1_dropShadow_3_357"/>
<feBlend mode="normal" in="SourceGraphic" in2="effect1_dropShadow_3_357" result="shape"/>
</filter>
<linearGradient id="paint0_linear_3_357" x1="75" y1="165.206" x2="75" y2="15.206" gradientUnits="userSpaceOnUse">
<stop stop-color="#1F5BB2"/>
<stop offset="1" stop-color="#001A77"/>
</linearGradient>
<linearGradient id="paint1_linear_3_357" x1="83.703" y1="70.498" x2="98.289" y2="95.762" gradientUnits="userSpaceOnUse">
<stop stop-color="#CDD3E4"/>
<stop offset="1" stop-color="#EEEDF2"/>
</linearGradient>
<linearGradient id="paint2_linear_3_357" x1="48.873" y1="115.231" x2="48.873" y2="68.264" gradientUnits="userSpaceOnUse">
<stop stop-color="#EEEDF2"/>
<stop offset="1" stop-color="#CDD3E4"/>
</linearGradient>
<linearGradient id="paint3_linear_3_357" x1="59.463" y1="116.094" x2="59.463" y2="81.371" gradientUnits="userSpaceOnUse">
<stop stop-color="white"/>
<stop offset="0.436" stop-color="#FBFBFD"/>
<stop offset="0.88" stop-color="#EFF0F6"/>
<stop offset="1" stop-color="#EAECF4"/>
</linearGradient>
<linearGradient id="paint4_linear_3_357" x1="69.904" y1="116.094" x2="69.904" y2="81.371" gradientUnits="userSpaceOnUse">
<stop stop-color="white"/>
<stop offset="0.436" stop-color="#FBFBFD"/>
<stop offset="0.88" stop-color="#EFF0F6"/>
<stop offset="1" stop-color="#EAECF4"/>
</linearGradient>
<linearGradient id="paint5_linear_3_357" x1="51.297" y1="111.346" x2="51.297" y2="76.624" gradientUnits="userSpaceOnUse">
<stop stop-color="white"/>
<stop offset="0.436" stop-color="#FBFBFD"/>
<stop offset="0.88" stop-color="#EFF0F6"/>
<stop offset="1" stop-color="#EAECF4"/>
</linearGradient>
<linearGradient id="paint6_linear_3_357" x1="79.211" y1="111.346" x2="79.211" y2="76.624" gradientUnits="userSpaceOnUse">
<stop stop-color="white"/>
<stop offset="0.436" stop-color="#FBFBFD"/>
<stop offset="0.88" stop-color="#EFF0F6"/>
<stop offset="1" stop-color="#EAECF4"/>
</linearGradient>
<linearGradient id="paint7_linear_3_357" x1="107.125" y1="94.369" x2="107.125" y2="59.647" gradientUnits="userSpaceOnUse">
<stop stop-color="white"/>
<stop offset="0.436" stop-color="#FBFBFD"/>
<stop offset="0.88" stop-color="#EFF0F6"/>
<stop offset="1" stop-color="#EAECF4"/>
</linearGradient>
<linearGradient id="paint8_linear_3_357" x1="116.428" y1="89.622" x2="116.428" y2="54.899" gradientUnits="userSpaceOnUse">
<stop stop-color="white"/>
<stop offset="0.436" stop-color="#FBFBFD"/>
<stop offset="0.88" stop-color="#EFF0F6"/>
<stop offset="1" stop-color="#EAECF4"/>
</linearGradient>
<linearGradient id="paint9_linear_3_357" x1="43.129" y1="106.599" x2="43.129" y2="71.876" gradientUnits="userSpaceOnUse">
<stop stop-color="white"/>
<stop offset="0.436" stop-color="#FBFBFD"/>
<stop offset="0.88" stop-color="#EFF0F6"/>
<stop offset="1" stop-color="#EAECF4"/>
</linearGradient>
<linearGradient id="paint10_linear_3_357" x1="34.965" y1="101.852" x2="34.965" y2="67.129" gradientUnits="userSpaceOnUse">
<stop stop-color="white"/>
<stop offset="0.436" stop-color="#FBFBFD"/>
<stop offset="0.88" stop-color="#EFF0F6"/>
<stop offset="1" stop-color="#EAECF4"/>
</linearGradient>
<linearGradient id="paint11_linear_3_357" x1="46.129" y1="56.069" x2="126.275" y2="56.069" gradientUnits="userSpaceOnUse">
<stop stop-color="#EEEDF2"/>
<stop offset="1" stop-color="#C2CDCF"/>
</linearGradient>
<linearGradient id="paint12_linear_3_357" x1="12.002" y1="32.938" x2="74.592" y2="32.938" gradientUnits="userSpaceOnUse">
<stop stop-color="#FFB24D"/>
<stop offset="1" stop-color="#FFDC7B"/>
</linearGradient>
<linearGradient id="paint13_linear_3_357" x1="114.882" y1="36.913" x2="133.676" y2="52.44" gradientUnits="userSpaceOnUse">
<stop stop-color="#FFB24D"/>
<stop offset="1" stop-color="#FFDC7B"/>
</linearGradient>
<linearGradient id="paint14_linear_3_357" x1="74.5" y1="116" x2="74.5" y2="146" gradientUnits="userSpaceOnUse">
<stop stop-color="#415C83"/>
<stop offset="1" stop-color="#131E45"/>
</linearGradient>
<clipPath id="clip0_3_357">
<rect width="150" height="166" fill="white"/>
</clipPath>
</defs>
</svg>
