<svg width="164" height="161" viewBox="0 0 164 161" fill="none" xmlns="http://www.w3.org/2000/svg">
<g clip-path="url(#clip0_3_225)">
<path d="M83.9367 150.875C125.448 150.875 159.101 117.212 159.101 75.6875C159.101 34.1629 125.448 0.5 83.9367 0.5C42.425 0.5 8.77246 34.1629 8.77246 75.6875C8.77246 117.212 42.425 150.875 83.9367 150.875Z" fill="url(#paint0_linear_3_225)"/>
<path d="M83.4356 133.832C115.261 133.832 141.062 108.024 141.062 76.1887C141.062 44.3534 115.261 18.545 83.4356 18.545C51.6101 18.545 25.8097 44.3534 25.8097 76.1887C25.8097 108.024 51.6101 133.832 83.4356 133.832Z" fill="url(#paint1_linear_3_225)"/>
<path d="M34.0777 109.301H23.1038V145.341H34.0777V109.301Z" fill="white"/>
<path d="M41.5741 109.301H34.0777V145.341H41.5741V109.301Z" fill="url(#paint2_linear_3_225)"/>
<path d="M117.647 97.2613H95.1682V156.75H117.647V97.2613Z" fill="white"/>
<path d="M133.001 97.2613H117.647V156.75H133.001V97.2613Z" fill="url(#paint3_linear_3_225)"/>
<path d="M131.09 33.392L101.776 43.2165C100.343 43.6977 98.7992 42.9258 98.3181 41.4922L97.2357 38.2541L124.445 29.1314C126.66 28.3895 129.095 28.8206 130.919 30.2843L131.551 30.7855C132.483 31.5374 132.222 33.0111 131.09 33.392Z" fill="#082A3F"/>
<path d="M108.662 24.2593C108.465 24.3251 108.285 24.4313 108.132 24.5711C107.979 24.711 107.857 24.8813 107.774 25.0711C107.691 25.2609 107.649 25.4661 107.65 25.6733C107.651 25.8805 107.695 26.0853 107.78 26.2743L111.087 33.6226L118.864 31.0161L110.015 24.4798C109.624 24.1891 109.123 24.1089 108.662 24.2593ZM116.749 48.3794C115.918 48.6601 115.026 48.1588 114.835 47.3067L113.051 39.4471L120.828 36.8406L117.711 47.3969C117.561 47.8581 117.2 48.219 116.749 48.3794ZM97.2758 34.5549C97.6066 34.4447 97.9674 34.4848 98.268 34.6552L101.816 36.7304L97.2458 38.2642L96.5142 36.0787C96.3037 35.4472 96.6445 34.7655 97.2758 34.5549Z" fill="#082A3F"/>
<path d="M1.63586 70.8956L24.4658 62.8154L47.3357 54.8255C54.9524 52.1588 62.539 49.3819 70.2358 46.9358C77.9426 44.5398 85.6495 42.1138 93.4866 40.0887L93.5467 40.2792C86.0804 43.387 78.4638 46.0937 70.8772 48.8305C63.2605 51.5172 55.5437 53.8731 47.8569 56.3393L24.7965 63.7578L1.70602 71.076L1.63586 70.8956ZM1.63586 75.9081L24.4658 67.8279L47.3357 59.838C54.9524 57.1713 62.539 54.3944 70.2358 51.9483C77.9426 49.5523 85.6495 47.1263 93.4866 45.1012L93.5467 45.2917C86.0804 48.3995 78.4638 51.1062 70.8772 53.843C63.2605 56.5297 55.5437 58.8856 47.8569 61.3518L24.7965 68.7703L1.70602 76.0885L1.63586 75.9081Z" fill="white"/>
<path d="M125.026 30.575C125.026 30.575 128.534 29.0712 129.536 31.0762L125.528 32.0787L125.026 30.575Z" fill="#4094D3"/>
<path d="M131.09 33.392L101.776 43.2165C100.343 43.6977 98.7992 42.9258 98.3181 41.4922L97.2357 38.2541L124.445 29.1314C126.66 28.3895 129.095 28.8206 130.919 30.2843L131.551 30.7855C132.483 31.5374 132.222 33.0111 131.09 33.392Z" fill="#082A3F"/>
<path d="M130.549 29.793L129.917 29.2918C129.021 28.5724 127.959 28.0898 126.827 27.8884C125.696 27.6869 124.532 27.7731 123.443 28.1389L96.2336 37.2617L97.3159 40.4998C97.5468 41.1864 98.0403 41.7535 98.6885 42.0767C99.3366 42.3999 100.086 42.4529 100.773 42.224L130.088 32.3995C131.22 32.0086 131.481 30.5349 130.549 29.793Z" fill="url(#paint4_linear_3_225)"/>
<path d="M72.6019 73.8229H39.5697V156.92H72.6019V73.8229Z" fill="white"/>
<path d="M95.1712 73.8229H72.6119V156.92H95.1712V73.8229Z" fill="url(#paint5_linear_3_225)"/>
<path d="M146.713 103.106H131.259V151.877H146.713V103.106Z" fill="white"/>
<path d="M157.268 103.106H146.715V151.877H157.268V103.106Z" fill="url(#paint6_linear_3_225)"/>
<path d="M25.8297 108.94H5.69574V157.712H25.8297V108.94Z" fill="white"/>
<path d="M39.5798 108.94H25.8297V157.712H39.5798V108.94Z" fill="url(#paint7_linear_3_225)"/>
<g opacity="0.75">
<path opacity="0.75" d="M50.9145 82.9657H46.1742V93.4919H50.9145V82.9657Z" fill="url(#paint8_linear_3_225)"/>
<path opacity="0.75" d="M63.4419 82.9657H58.7015V93.4919H63.4419V82.9657Z" fill="url(#paint9_linear_3_225)"/>
</g>
<g opacity="0.75">
<path opacity="0.75" d="M50.9145 100.519H46.1742V111.046H50.9145V100.519Z" fill="url(#paint10_linear_3_225)"/>
<path opacity="0.75" d="M63.4419 100.519H58.7015V111.046H63.4419V100.519Z" fill="url(#paint11_linear_3_225)"/>
</g>
<g opacity="0.75">
<path opacity="0.75" d="M50.9145 118.063H46.1742V128.589H50.9145V118.063Z" fill="url(#paint12_linear_3_225)"/>
<path opacity="0.75" d="M63.4419 118.063H58.7015V128.589H63.4419V118.063Z" fill="url(#paint13_linear_3_225)"/>
</g>
<g opacity="0.75">
<path opacity="0.75" d="M50.9145 135.607H46.1742V146.133H50.9145V135.607Z" fill="url(#paint14_linear_3_225)"/>
<path opacity="0.75" d="M63.4419 135.607H58.7015V146.133H63.4419V135.607Z" fill="url(#paint15_linear_3_225)"/>
</g>
<g opacity="0.5">
<path opacity="0.5" d="M113.811 104.309H108.69V109.432H113.811V104.309Z" fill="url(#paint16_linear_3_225)"/>
<path opacity="0.5" d="M113.811 118.153H108.69V123.276H113.811V118.153Z" fill="url(#paint17_linear_3_225)"/>
</g>
<g opacity="0.5">
<path opacity="0.5" d="M104.13 104.309H99.0086V109.432H104.13V104.309Z" fill="url(#paint18_linear_3_225)"/>
<path opacity="0.5" d="M104.13 118.153H99.0086V123.276H104.13V118.153Z" fill="url(#paint19_linear_3_225)"/>
</g>
<g opacity="0.75">
<path opacity="0.25" d="M18.3213 117.833H13.2001V122.955H18.3213V117.833Z" fill="url(#paint20_linear_3_225)"/>
<path opacity="0.25" d="M18.3213 132.68H13.2001V137.802H18.3213V132.68Z" fill="url(#paint21_linear_3_225)"/>
<path opacity="0.25" d="M18.3213 146.143H13.2001V151.266H18.3213V146.143Z" fill="url(#paint22_linear_3_225)"/>
</g>
<path d="M141.781 109.211H137.041V117.371H141.781V109.211Z" fill="url(#paint23_linear_3_225)"/>
<path d="M141.781 123.667H137.041V131.828H141.781V123.667Z" fill="url(#paint24_linear_3_225)"/>
<path d="M141.781 138.123H137.041V146.284H141.781V138.123Z" fill="url(#paint25_linear_3_225)"/>
<path d="M102.908 120.95H77.9236V160.499H102.908V120.95Z" fill="white"/>
<path d="M119.965 120.95H102.908V160.499H119.965V120.95Z" fill="url(#paint26_linear_3_225)"/>
<g opacity="0.5">
<path opacity="0.5" d="M92.9764 130.484H87.8553V135.607H92.9764V130.484Z" fill="url(#paint27_linear_3_225)"/>
<path opacity="0.5" d="M92.9764 145.331H87.8553V150.454H92.9764V145.331Z" fill="url(#paint28_linear_3_225)"/>
</g>
<path d="M163.501 129.822H0.500366V163.907H163.501V129.822Z" fill="url(#paint29_linear_3_225)"/>
</g>
<defs>
<linearGradient id="paint0_linear_3_225" x1="83.9367" y1="0.5" x2="83.9367" y2="150.875" gradientUnits="userSpaceOnUse">
<stop stop-color="#CFEBFF"/>
<stop offset="1" stop-color="#81BBFF"/>
</linearGradient>
<linearGradient id="paint1_linear_3_225" x1="83.4356" y1="18.545" x2="83.4356" y2="133.832" gradientUnits="userSpaceOnUse">
<stop stop-color="#81BBFF"/>
<stop offset="1" stop-color="#CFEBFF"/>
</linearGradient>
<linearGradient id="paint2_linear_3_225" x1="37.8299" y1="145.336" x2="37.8299" y2="109.3" gradientUnits="userSpaceOnUse">
<stop stop-color="white"/>
<stop offset="0.88" stop-color="#80B1D3"/>
</linearGradient>
<linearGradient id="paint3_linear_3_225" x1="125.324" y1="97.2613" x2="125.324" y2="156.75" gradientUnits="userSpaceOnUse">
<stop stop-color="#5D9AE0"/>
<stop offset="0.626" stop-color="#C3D9F3"/>
<stop offset="1" stop-color="white"/>
</linearGradient>
<linearGradient id="paint4_linear_3_225" x1="113.68" y1="42.3574" x2="113.68" y2="27.782" gradientUnits="userSpaceOnUse">
<stop stop-color="#EBEFF7"/>
<stop offset="1" stop-color="white"/>
</linearGradient>
<linearGradient id="paint5_linear_3_225" x1="83.8906" y1="73.8229" x2="83.8906" y2="156.92" gradientUnits="userSpaceOnUse">
<stop stop-color="#5D9AE0"/>
<stop offset="0.626" stop-color="#C3D9F3"/>
<stop offset="1" stop-color="white"/>
</linearGradient>
<linearGradient id="paint6_linear_3_225" x1="151.991" y1="103.106" x2="151.991" y2="151.877" gradientUnits="userSpaceOnUse">
<stop stop-color="#5D9AE0"/>
<stop offset="0.626" stop-color="#C3D9F3"/>
<stop offset="1" stop-color="white"/>
</linearGradient>
<linearGradient id="paint7_linear_3_225" x1="32.7047" y1="108.94" x2="32.7047" y2="157.712" gradientUnits="userSpaceOnUse">
<stop stop-color="#5D9AE0"/>
<stop offset="0.626" stop-color="#C3D9F3"/>
<stop offset="1" stop-color="white"/>
</linearGradient>
<linearGradient id="paint8_linear_3_225" x1="48.5423" y1="93.4979" x2="48.5423" y2="82.9687" gradientUnits="userSpaceOnUse">
<stop stop-color="white"/>
<stop offset="0.996" stop-color="#799EC6"/>
</linearGradient>
<linearGradient id="paint9_linear_3_225" x1="61.0757" y1="93.4979" x2="61.0757" y2="82.9687" gradientUnits="userSpaceOnUse">
<stop stop-color="white"/>
<stop offset="0.996" stop-color="#799EC6"/>
</linearGradient>
<linearGradient id="paint10_linear_3_225" x1="48.5423" y1="111.045" x2="48.5423" y2="100.515" gradientUnits="userSpaceOnUse">
<stop stop-color="white"/>
<stop offset="0.996" stop-color="#799EC6"/>
</linearGradient>
<linearGradient id="paint11_linear_3_225" x1="61.0757" y1="111.045" x2="61.0757" y2="100.515" gradientUnits="userSpaceOnUse">
<stop stop-color="white"/>
<stop offset="0.996" stop-color="#799EC6"/>
</linearGradient>
<linearGradient id="paint12_linear_3_225" x1="48.5423" y1="128.591" x2="48.5423" y2="118.062" gradientUnits="userSpaceOnUse">
<stop stop-color="white"/>
<stop offset="0.996" stop-color="#799EC6"/>
</linearGradient>
<linearGradient id="paint13_linear_3_225" x1="61.0757" y1="128.591" x2="61.0757" y2="118.062" gradientUnits="userSpaceOnUse">
<stop stop-color="white"/>
<stop offset="0.996" stop-color="#799EC6"/>
</linearGradient>
<linearGradient id="paint14_linear_3_225" x1="48.5423" y1="146.138" x2="48.5423" y2="135.609" gradientUnits="userSpaceOnUse">
<stop stop-color="white"/>
<stop offset="0.996" stop-color="#799EC6"/>
</linearGradient>
<linearGradient id="paint15_linear_3_225" x1="61.0757" y1="146.138" x2="61.0757" y2="135.609" gradientUnits="userSpaceOnUse">
<stop stop-color="white"/>
<stop offset="0.996" stop-color="#799EC6"/>
</linearGradient>
<linearGradient id="paint16_linear_3_225" x1="111.253" y1="109.432" x2="111.253" y2="104.31" gradientUnits="userSpaceOnUse">
<stop stop-color="white"/>
<stop offset="0.996" stop-color="#799EC6"/>
</linearGradient>
<linearGradient id="paint17_linear_3_225" x1="111.253" y1="123.277" x2="111.253" y2="118.155" gradientUnits="userSpaceOnUse">
<stop stop-color="white"/>
<stop offset="0.996" stop-color="#799EC6"/>
</linearGradient>
<linearGradient id="paint18_linear_3_225" x1="101.571" y1="109.432" x2="101.571" y2="104.31" gradientUnits="userSpaceOnUse">
<stop stop-color="white"/>
<stop offset="0.996" stop-color="#799EC6"/>
</linearGradient>
<linearGradient id="paint19_linear_3_225" x1="101.571" y1="123.277" x2="101.571" y2="118.155" gradientUnits="userSpaceOnUse">
<stop stop-color="white"/>
<stop offset="0.996" stop-color="#799EC6"/>
</linearGradient>
<linearGradient id="paint20_linear_3_225" x1="15.7607" y1="122.954" x2="15.7607" y2="117.833" gradientUnits="userSpaceOnUse">
<stop stop-color="white"/>
<stop offset="0.996" stop-color="#799EC6"/>
</linearGradient>
<linearGradient id="paint21_linear_3_225" x1="15.7607" y1="137.802" x2="15.7607" y2="132.681" gradientUnits="userSpaceOnUse">
<stop stop-color="white"/>
<stop offset="0.996" stop-color="#799EC6"/>
</linearGradient>
<linearGradient id="paint22_linear_3_225" x1="15.7607" y1="151.261" x2="15.7607" y2="146.139" gradientUnits="userSpaceOnUse">
<stop stop-color="white"/>
<stop offset="0.996" stop-color="#799EC6"/>
</linearGradient>
<linearGradient id="paint23_linear_3_225" x1="139.414" y1="117.371" x2="139.414" y2="109.213" gradientUnits="userSpaceOnUse">
<stop stop-color="white"/>
<stop offset="0.996" stop-color="#799EC6"/>
</linearGradient>
<linearGradient id="paint24_linear_3_225" x1="139.414" y1="131.828" x2="139.414" y2="123.669" gradientUnits="userSpaceOnUse">
<stop stop-color="white"/>
<stop offset="0.996" stop-color="#799EC6"/>
</linearGradient>
<linearGradient id="paint25_linear_3_225" x1="139.414" y1="146.284" x2="139.414" y2="138.125" gradientUnits="userSpaceOnUse">
<stop stop-color="white"/>
<stop offset="0.996" stop-color="#799EC6"/>
</linearGradient>
<linearGradient id="paint26_linear_3_225" x1="111.437" y1="120.95" x2="111.437" y2="160.499" gradientUnits="userSpaceOnUse">
<stop stop-color="#5D9AE0"/>
<stop offset="0.626" stop-color="#C3D9F3"/>
<stop offset="1" stop-color="white"/>
</linearGradient>
<linearGradient id="paint27_linear_3_225" x1="90.4148" y1="135.61" x2="90.4148" y2="130.488" gradientUnits="userSpaceOnUse">
<stop stop-color="white"/>
<stop offset="0.996" stop-color="#799EC6"/>
</linearGradient>
<linearGradient id="paint28_linear_3_225" x1="90.4148" y1="150.458" x2="90.4148" y2="145.336" gradientUnits="userSpaceOnUse">
<stop stop-color="white"/>
<stop offset="0.996" stop-color="#799EC6"/>
</linearGradient>
<linearGradient id="paint29_linear_3_225" x1="82" y1="163.907" x2="82" y2="129.822" gradientUnits="userSpaceOnUse">
<stop stop-color="#FBFCF5"/>
<stop offset="1" stop-color="#FBFCF5" stop-opacity="0"/>
</linearGradient>
<clipPath id="clip0_3_225">
<rect width="164" height="161" fill="white"/>
</clipPath>
</defs>
</svg>
