<svg width="164" height="168" viewBox="0 0 164 168" fill="none" xmlns="http://www.w3.org/2000/svg">
<g clip-path="url(#clip0_3_280)">
<path d="M81.693 78.04L7.573 103.98C7.533 103.7 7.503 103.41 7.453 103.13C12.653 139.48 43.893 167.42 81.683 167.42C119.173 167.42 150.233 139.91 155.793 103.98L81.693 78.04Z" fill="url(#paint0_linear_3_280)"/>
<path d="M6.691 92.42C6.691 51 40.271 17.42 81.691 17.42C40.261 17.42 6.691 51 6.691 92.42Z" fill="url(#paint1_linear_3_280)"/>
<path d="M6.84 97.01C6.82 96.63 6.79 96.26 6.77 95.88C6.79 96.26 6.82 96.64 6.84 97.01Z" fill="url(#paint2_linear_3_280)"/>
<path d="M156.531 97.01C156.551 96.64 156.581 96.27 156.591 95.89C156.581 96.26 156.561 96.63 156.531 97.01Z" fill="url(#paint3_linear_3_280)"/>
<path d="M7.14 100.6C7.09 100.18 7.06 99.77 7.02 99.35C7.05 99.77 7.09 100.18 7.14 100.6Z" fill="url(#paint4_linear_3_280)"/>
<path d="M156.23 100.6L156.35 99.36C156.32 99.77 156.28 100.18 156.23 100.6Z" fill="url(#paint5_linear_3_280)"/>
<path d="M155.801 103.98C155.841 103.7 155.871 103.42 155.911 103.13C155.871 103.42 155.841 103.7 155.801 103.98Z" fill="url(#paint6_linear_3_280)"/>
<path d="M81.691 17.42C40.271 17.42 6.691 51 6.691 92.42C6.691 96.35 7.001 100.21 7.581 103.98L81.691 78.04L155.801 103.98C156.381 100.21 156.691 96.35 156.691 92.42C156.691 51 123.111 17.42 81.691 17.42Z" fill="#BDE8FD"/>
<path d="M24.558 76.04L59.648 63.24L47.578 59.01L12.488 71.82L24.558 76.04Z" fill="#C1E4FC"/>
<path d="M12.488 71.82V86.84L24.558 91.06V76.04L12.488 71.82Z" fill="#53C1F9"/>
<path d="M59.649 63.24V78.26L24.559 91.06V76.04L59.649 63.24Z" fill="#94D9F7"/>
<path d="M49.96 45.65L76.07 36.12L67.09 32.98L40.98 42.51L49.96 45.65Z" fill="#E1F3FF"/>
<path d="M40.98 42.51V53.69L49.96 56.83V45.65L40.98 42.51Z" fill="#53C1F9"/>
<path d="M76.07 36.12V47.3L49.96 56.83V45.65L76.07 36.12Z" fill="#94D9F7"/>
<path d="M0 106.63V119.29L81.69 90.7L163.37 119.29V106.63L81.69 78.04L0 106.63Z" fill="#001A77"/>
<path fill-rule="evenodd" clip-rule="evenodd" d="M30.77 129.19L30.786 129.194L30.769 129.2L100.85 153.44C107.043 155.579 113.548 156.671 120.1 156.67H137.23L150.69 142.55C150.543 140.672 149.531 140.868 148.107 141.144C147.281 141.304 146.316 141.492 145.301 141.315L144.838 141.209C144.765 141.188 144.692 141.165 144.62 141.14L70.19 115.4L55.164 120.66L30.769 115.07V129.19H30.77Z" fill="url(#paint7_linear_3_280)"/>
<path d="M144.62 127.02L70.19 101.28L30.77 115.08L100.85 139.32C107.043 141.459 113.548 142.551 120.1 142.55H150.69L150.03 134.04C149.913 132.469 149.339 130.967 148.377 129.719C147.416 128.471 146.109 127.533 144.62 127.02ZM56.56 95.73L87.43 84.86L70.63 79.08L39.75 89.95L56.56 95.73Z" fill="#E1F3FF"/>
<path d="M39.75 89.95V115.62L56.56 121.39V95.73L39.75 89.95Z" fill="#001D9B"/>
<path d="M87.429 84.86V110.53L56.559 121.39V95.73L87.429 84.86Z" fill="#53C1F9"/>
<path d="M85.409 100.84L100.359 95.63L92.579 92.91L77.629 98.12L85.409 100.84Z" fill="#E1F3FF"/>
<path d="M77.629 98.12V117.8L85.409 120.53V100.84L77.629 98.12Z" fill="#001D9B"/>
<path d="M100.36 95.63V115.31L85.41 120.53V100.84L100.36 95.63Z" fill="#53C1F9"/>
<path d="M100.359 105.42L85.409 110.63L77.629 107.91" stroke="#231F20" stroke-miterlimit="10"/>
<path d="M69.25 106.49L84.2 101.27L76.43 98.55L61.48 103.77L69.25 106.49Z" fill="#E1F3FF"/>
<path d="M61.48 103.77V123.45L69.25 126.17V106.49L61.48 103.77Z" fill="#001D9B"/>
<path d="M84.2 101.27V120.96L69.25 126.17V106.49L84.2 101.27Z" fill="#53C1F9"/>
<path d="M84.2 111.11L69.25 116.33L61.48 113.61" stroke="#2B91D6" stroke-miterlimit="10"/>
<path d="M97.378 104.81L112.328 99.6L104.548 96.88L89.598 102.09L97.378 104.81Z" fill="#E1F3FF"/>
<path d="M89.598 102.09V121.77L97.378 124.49V104.81L89.598 102.09Z" fill="#001D9B"/>
<path d="M112.329 99.6V119.28L97.379 124.49V104.81L112.329 99.6Z" fill="#53C1F9"/>
<path d="M112.328 109.39L97.378 114.6L89.598 111.88" stroke="#231F20" stroke-miterlimit="10"/>
<path d="M81.221 110.46L96.171 105.24L88.391 102.52L73.441 107.73L81.221 110.46Z" fill="#E1F3FF"/>
<path d="M73.441 107.73V127.42L81.221 130.14V110.46L73.441 107.73Z" fill="#001D9B"/>
<path d="M96.173 105.24V124.92L81.223 130.14V110.46L96.173 105.24Z" fill="#53C1F9"/>
<path d="M96.171 115.08L81.221 120.3L73.441 117.57" stroke="#2B91D6" stroke-miterlimit="10"/>
<path d="M109.35 108.78L124.29 103.57L116.52 100.84L101.57 106.06L109.35 108.78Z" fill="#E1F3FF"/>
<path d="M101.57 106.06V125.74L109.35 128.46V108.78L101.57 106.06Z" fill="#001D9B"/>
<path d="M124.292 103.57V123.25L109.352 128.46V108.78L124.292 103.57Z" fill="#53C1F9"/>
<path d="M124.29 113.35L109.35 118.57L101.57 115.85" stroke="#2B91D6" stroke-miterlimit="10"/>
<path d="M58.888 87.71L77.078 81.31L67.178 77.91L48.988 84.31L58.888 87.71Z" fill="#E1F3FF"/>
<path d="M48.988 84.31V89.91L58.888 93.31V87.71L48.988 84.31Z" fill="#001D9B"/>
<path d="M77.077 81.31V86.91L58.887 93.31V87.71L77.077 81.31ZM60.36 71.06H55.82L54.82 84.53C54.82 85.16 56.29 85.68 58.09 85.68C59.9 85.68 61.36 85.17 61.36 84.53L60.36 71.06Z" fill="#53C1F9"/>
<path d="M58.09 71.85C59.344 71.85 60.36 71.496 60.36 71.06C60.36 70.624 59.344 70.27 58.09 70.27C56.837 70.27 55.82 70.624 55.82 71.06C55.82 71.496 56.837 71.85 58.09 71.85Z" fill="#001D9B"/>
<path d="M109.35 118.57L101.57 115.85M69.25 116.33L61.48 113.61L69.25 116.33ZM81.221 120.3L73.441 117.57L81.221 120.3Z" stroke="#061A60" stroke-miterlimit="10"/>
<path d="M93.19 114.42L108.14 109.21L100.36 106.49L85.41 111.7L93.19 114.42Z" fill="#E1F3FF"/>
<path d="M85.41 111.7V131.38L93.19 134.11V114.42L85.41 111.7Z" fill="#001D9B"/>
<path d="M108.141 109.21V128.89L93.191 134.11V114.42L108.141 109.21Z" fill="#53C1F9"/>
<path d="M108.14 119.05L93.19 124.26L85.41 121.54" stroke="#2B91D6" stroke-miterlimit="10"/>
<path d="M93.19 124.26L85.41 121.54" stroke="#061A60" stroke-miterlimit="10"/>
<path opacity="0.1" d="M113.102 136.69L123.002 135.97L130.432 133.37L113.102 130.48V136.69Z" fill="#002766"/>
<path d="M113.1 126.78L120.53 124.18L113.1 121.59L105.68 124.18L113.1 126.78Z" fill="#E1F3FF"/>
<path d="M105.68 124.18V134.09L113.1 136.69V126.78L105.68 124.18Z" fill="#001D9B"/>
<path d="M120.532 124.18V134.09L113.102 136.69V126.78L120.532 124.18Z" fill="#53C1F9"/>
<path opacity="0.1" d="M130.07 135.52L138.89 134.88L145.5 132.57L130.07 129.99V135.52Z" fill="#002766"/>
<path d="M130.071 126.7L136.681 124.39L130.071 122.07L123.461 124.39L130.071 126.7Z" fill="#E1F3FF"/>
<path d="M123.461 124.39V133.21L130.071 135.52V126.7L123.461 124.39Z" fill="#001D9B"/>
<path d="M136.68 124.39V133.21L130.07 135.52V126.7L136.68 124.39Z" fill="#53C1F9"/>
<path d="M92 65.04V73.529C92 76.717 99.388 79.31 108.508 79.31C117.629 79.31 125.017 76.726 125.017 73.529V65.039H92V65.04Z" fill="#001D9B"/>
<path d="M108.508 70.82C117.626 70.82 125.017 68.232 125.017 65.04C125.017 61.847 117.626 59.258 108.508 59.258C99.391 59.258 92 61.847 92 65.04C92 68.233 99.391 70.821 108.508 70.821V70.82Z" fill="#E1F3FF"/>
<path d="M108.209 68.245C100.421 68.245 96.176 65.999 96.176 64.845C96.176 63.69 100.421 61.443 108.209 61.443C115.997 61.443 120.241 63.69 120.241 64.844C120.241 65.999 115.997 68.245 108.209 68.245Z" fill="#53C1F9"/>
<path d="M96.176 64.844L100.643 14.422H115.783L120.241 64.844H96.176Z" fill="url(#paint8_linear_3_280)"/>
<path d="M108.509 16.704C114.919 16.704 120.115 14.887 120.115 12.645C120.115 10.405 114.919 8.58701 108.509 8.58701C102.099 8.58701 96.902 10.404 96.902 12.646C96.902 14.886 102.099 16.704 108.509 16.704Z" fill="#001A77"/>
<path d="M99.644 5.95001V10.505C99.644 12.219 103.614 13.605 108.507 13.605C113.4 13.605 117.37 12.219 117.37 10.505V5.95001H99.644Z" fill="#E1F3FF"/>
<path d="M108.507 9.04901C113.402 9.04901 117.37 7.66101 117.37 5.94901C117.37 4.23901 113.402 2.85101 108.507 2.85101C103.612 2.85101 99.644 4.23801 99.644 5.95001C99.644 7.66101 103.612 9.04901 108.507 9.04901Z" fill="#E1F3FF"/>
<path d="M108.508 9.981C116.384 9.981 122.77 7.747 122.77 4.991C122.77 2.234 116.384 0 108.508 0C100.631 0 94.246 2.234 94.246 4.99C94.246 7.747 100.631 9.981 108.508 9.981Z" fill="#001A77"/>
<path opacity="0.35" d="M97.347 51.595L96.797 57.829C98.333 59.525 102.862 60.75 108.208 60.75C113.554 60.75 118.083 59.525 119.619 57.829L119.069 51.595C117.168 53.033 113.03 54.028 108.208 54.028C103.386 54.028 99.257 53.033 97.348 51.595H97.347ZM98.385 39.864L97.879 45.564C99.335 47.074 103.402 48.158 108.207 48.158C113.011 48.158 117.069 47.074 118.534 45.565L118.028 39.864C116.27 41.142 112.54 42.03 108.207 42.03C103.882 42.03 100.152 41.142 98.385 39.864ZM99.327 29.243L98.847 34.633C100.411 35.903 104.007 36.791 108.207 36.791C112.399 36.791 116.004 35.903 117.567 34.633L117.088 29.243C115.338 30.326 112.017 31.063 108.207 31.063C104.398 31.063 101.077 30.326 99.327 29.243ZM116.626 23.116L116.253 18.889C115.108 20.061 111.946 20.904 108.208 20.904C104.469 20.904 101.308 20.061 100.162 18.889L99.789 23.116C100.357 24.563 103.91 25.682 108.208 25.682C112.506 25.682 116.058 24.572 116.626 23.116Z" fill="#E1F3FF"/>
<path opacity="0.75" d="M55.05 71.06C58.27 68.94 57.97 61.29 53.21 60.71C48.45 60.13 36.73 79.56 6.89 65.02L7.4 62.7L19.95 40.02C34.29 49.54 39.31 43.27 53.66 47.58C68.01 51.89 64.05 66.81 59.36 71.05" fill="white"/>
</g>
<defs>
<linearGradient id="paint0_linear_3_280" x1="81.623" y1="78.04" x2="81.623" y2="167.42" gradientUnits="userSpaceOnUse">
<stop stop-color="#39F2FE"/>
<stop offset="1" stop-color="#30A8F0"/>
</linearGradient>
<linearGradient id="paint1_linear_3_280" x1="44.191" y1="17.42" x2="44.191" y2="92.43" gradientUnits="userSpaceOnUse">
<stop stop-color="#39F2FE"/>
<stop offset="1" stop-color="#30A8F0"/>
</linearGradient>
<linearGradient id="paint2_linear_3_280" x1="6.805" y1="95.88" x2="6.805" y2="97.01" gradientUnits="userSpaceOnUse">
<stop stop-color="#39F2FE"/>
<stop offset="1" stop-color="#30A8F0"/>
</linearGradient>
<linearGradient id="paint3_linear_3_280" x1="156.561" y1="95.89" x2="156.561" y2="97.01" gradientUnits="userSpaceOnUse">
<stop stop-color="#39F2FE"/>
<stop offset="1" stop-color="#30A8F0"/>
</linearGradient>
<linearGradient id="paint4_linear_3_280" x1="7.08" y1="99.35" x2="7.08" y2="100.6" gradientUnits="userSpaceOnUse">
<stop stop-color="#39F2FE"/>
<stop offset="1" stop-color="#30A8F0"/>
</linearGradient>
<linearGradient id="paint5_linear_3_280" x1="156.29" y1="99.36" x2="156.29" y2="100.6" gradientUnits="userSpaceOnUse">
<stop stop-color="#39F2FE"/>
<stop offset="1" stop-color="#30A8F0"/>
</linearGradient>
<linearGradient id="paint6_linear_3_280" x1="155.856" y1="103.13" x2="155.856" y2="103.98" gradientUnits="userSpaceOnUse">
<stop stop-color="#39F2FE"/>
<stop offset="1" stop-color="#30A8F0"/>
</linearGradient>
<linearGradient id="paint7_linear_3_280" x1="31" y1="123" x2="145.5" y2="149" gradientUnits="userSpaceOnUse">
<stop stop-color="#001D9B"/>
<stop offset="1" stop-color="#2D7FE0"/>
</linearGradient>
<linearGradient id="paint8_linear_3_280" x1="108.209" y1="14.422" x2="108.209" y2="64.844" gradientUnits="userSpaceOnUse">
<stop stop-color="#53DBF9"/>
<stop offset="1" stop-color="#53C1F9"/>
</linearGradient>
<clipPath id="clip0_3_280">
<rect width="164" height="168" fill="white"/>
</clipPath>
</defs>
</svg>
