<svg width="111" height="30" viewBox="0 0 111 30" fill="none" xmlns="http://www.w3.org/2000/svg">
<g clip-path="url(#clip0_3_1290)">
<path fill-rule="evenodd" clip-rule="evenodd" d="M31.196 19.4742C30.2914 19.3067 29.4588 18.8689 28.808 18.2185C28.1573 17.5681 27.719 16.7358 27.551 15.8312C27.5382 15.7855 27.5134 15.744 27.479 15.7112C27.4506 15.6829 27.4164 15.6611 27.3788 15.6473C27.3412 15.6335 27.301 15.628 27.261 15.6312L27.191 15.6392L25.623 15.8462C25.2405 15.9333 24.883 16.1068 24.5778 16.3532C24.2726 16.5997 24.0278 16.9127 23.8621 17.2683C23.6965 17.6238 23.6143 18.0126 23.6219 18.4048C23.6295 18.797 23.7267 19.1823 23.906 19.5312L23.966 19.6352C24.444 20.4332 25.229 20.8922 26.103 20.9252C26.1259 21.549 26.3749 22.1432 26.8035 22.597C27.2322 23.0508 27.8112 23.3332 28.4327 23.3916C29.0542 23.4499 29.6757 23.2803 30.1814 22.9143C30.687 22.5483 31.0423 22.0108 31.181 21.4022L31.387 19.8362L31.395 19.7662C31.398 19.7263 31.3925 19.6861 31.3787 19.6485C31.3649 19.6109 31.3432 19.5767 31.315 19.5482C31.2837 19.5121 31.2422 19.4863 31.196 19.4742ZM27.551 14.1742C27.7185 13.2696 28.1563 12.437 28.8067 11.7862C29.4571 11.1355 30.2895 10.6972 31.194 10.5292C31.2397 10.5164 31.2812 10.4916 31.314 10.4572C31.374 10.3972 31.401 10.3172 31.395 10.2392L31.387 10.1692L31.179 8.60121C31.0919 8.21872 30.9185 7.86121 30.672 7.55602C30.4255 7.25083 30.1125 7.00603 29.7569 6.84035C29.4014 6.67467 29.0126 6.59249 28.6204 6.60009C28.2282 6.60769 27.8429 6.70488 27.494 6.88421L27.39 6.94421C26.592 7.42221 26.133 8.20721 26.101 9.08121C25.4771 9.10391 24.8828 9.35274 24.4289 9.78131C23.9749 10.2099 23.6923 10.7889 23.6338 11.4105C23.5753 12.032 23.7449 12.6536 24.1109 13.1594C24.4769 13.6651 25.0143 14.0205 25.623 14.1592L27.189 14.3642L27.259 14.3732C27.2989 14.3762 27.3391 14.3707 27.3767 14.3569C27.4143 14.3431 27.4485 14.3214 27.477 14.2932C27.5131 14.262 27.539 14.2205 27.551 14.1742ZM36.496 14.1742C36.3285 13.2696 35.8907 12.437 35.2403 11.7862C34.5899 11.1355 33.7575 10.6972 32.853 10.5292C32.8073 10.5164 32.7658 10.4916 32.733 10.4572C32.7046 10.4289 32.6828 10.3947 32.669 10.357C32.6551 10.3194 32.6497 10.2792 32.653 10.2392L32.661 10.1692L32.868 8.60121C32.9551 8.21872 33.1285 7.86121 33.375 7.55602C33.6215 7.25083 33.9345 7.00603 34.2901 6.84035C34.6456 6.67467 35.0344 6.59249 35.4266 6.60009C35.8188 6.60769 36.2041 6.70488 36.553 6.88421L36.657 6.94421C37.455 7.42221 37.915 8.20721 37.947 9.08121C38.5709 9.10391 39.1652 9.35274 39.6191 9.78131C40.0731 10.2099 40.3557 10.7889 40.4142 11.4105C40.4727 12.032 40.3031 12.6536 39.9371 13.1594C39.5711 13.6651 39.0337 14.0205 38.425 14.1592L36.858 14.3642L36.788 14.3732C36.7481 14.3762 36.7079 14.3707 36.6703 14.3569C36.6327 14.3431 36.5985 14.3214 36.57 14.2932C36.5339 14.262 36.508 14.2205 36.496 14.1742ZM32.851 19.4742C33.7556 19.3067 34.5882 18.8689 35.239 18.2185C35.8897 17.5681 36.328 16.7358 36.496 15.8312C36.5088 15.7855 36.5336 15.744 36.568 15.7112C36.628 15.6512 36.708 15.6242 36.786 15.6312L36.856 15.6392L38.425 15.8462C38.8075 15.9333 39.165 16.1068 39.4702 16.3532C39.7754 16.5997 40.0202 16.9127 40.1859 17.2683C40.3515 17.6238 40.4337 18.0126 40.4261 18.4048C40.4185 18.797 40.3213 19.1823 40.142 19.5312L40.082 19.6352C39.604 20.4332 38.818 20.8922 37.944 20.9252C37.9211 21.549 37.6721 22.1432 37.2435 22.597C36.8148 23.0508 36.2358 23.3332 35.6143 23.3916C34.9928 23.4499 34.3713 23.2803 33.8656 22.9143C33.36 22.5483 33.0047 22.0108 32.866 21.4022L32.661 19.8362L32.652 19.7662C32.649 19.7263 32.6545 19.6861 32.6683 19.6485C32.6821 19.6109 32.7038 19.5767 32.732 19.5482C32.7635 19.5119 32.8054 19.4861 32.852 19.4742H32.851Z" fill="#102335"/>
<path fill-rule="evenodd" clip-rule="evenodd" d="M15.378 10.323C14.3753 8.82671 12.9182 7.69238 11.2216 7.08734C9.52512 6.48231 7.67905 6.43862 5.9558 6.96272C4.23256 7.48682 2.72341 8.55095 1.65103 9.99811C0.578655 11.4453 -0.000156079 13.1988 1.2085e-07 15C-0.000305346 16.8015 0.578485 18.5553 1.65096 20.0028C2.72344 21.4502 4.2328 22.5146 5.95632 23.0388C7.67984 23.5631 9.52623 23.5194 11.223 22.9142C12.9198 22.3091 14.3772 21.1745 15.38 19.678C15.4465 19.5428 15.4599 19.3875 15.4175 19.2429C15.3751 19.0983 15.28 18.9749 15.151 18.897L12.778 17.527C12.6545 17.4569 12.51 17.4333 12.3706 17.4604C12.2313 17.4876 12.1062 17.5637 12.018 17.675C11.4549 18.4365 10.6659 19.0009 9.76336 19.2879C8.86081 19.5749 7.89072 19.5698 6.99123 19.2734C6.09174 18.9769 5.30871 18.4042 4.75364 17.6369C4.19857 16.8695 3.89975 15.9466 3.89975 14.9995C3.89975 14.0524 4.19857 13.1295 4.75364 12.3621C5.30871 11.5947 6.09174 11.022 6.99123 10.7256C7.89072 10.4292 8.86081 10.4241 9.76336 10.7111C10.6659 10.998 11.4549 11.5625 12.018 12.324C12.1066 12.4348 12.2316 12.5105 12.3708 12.5376C12.51 12.5647 12.6543 12.5414 12.778 12.472L15.151 11.102C15.2794 11.0238 15.3739 10.9004 15.4159 10.756C15.4579 10.6117 15.4444 10.4569 15.378 10.322V10.323ZM17.547 0.59898V22.5C17.547 22.833 17.816 23.1 18.146 23.1H20.846C20.9248 23.1001 21.0029 23.0847 21.0758 23.0546C21.1486 23.0245 21.2148 22.9803 21.2706 22.9245C21.3263 22.8688 21.3705 22.8026 21.4006 22.7297C21.4307 22.6569 21.4461 22.5788 21.446 22.5V0.59998C21.4461 0.521197 21.4307 0.443164 21.4006 0.370365C21.3705 0.297566 21.3263 0.231436 21.2705 0.175774C21.2147 0.120112 21.1485 0.0760164 21.0757 0.0460195C21.0028 0.0160227 20.9248 0.00071631 20.846 0.00097991H18.148C18.0692 0.000848479 17.9912 0.0162378 17.9183 0.0462693C17.8455 0.0763007 17.7792 0.120386 17.7234 0.176008C17.6676 0.231631 17.6233 0.297701 17.5931 0.370446C17.5628 0.443191 17.5471 0.521187 17.547 0.59998V0.59898ZM41.142 7.28798L46.775 22.761C46.8241 22.8624 46.9008 22.9479 46.9963 23.0077C47.0919 23.0675 47.2023 23.0991 47.315 23.099H51.05C51.1627 23.0994 51.2733 23.0678 51.3689 23.008C51.4644 22.9482 51.5411 22.8626 51.59 22.761L57.222 7.28798C57.2356 7.24308 57.2385 7.19562 57.2304 7.14941C57.2224 7.10319 57.2036 7.05951 57.1756 7.02188C57.1476 6.98424 57.1111 6.9537 57.0692 6.9327C57.0272 6.91171 56.9809 6.90084 56.934 6.90098H53.63C53.5173 6.90058 53.4067 6.93212 53.3111 6.99193C53.2156 7.05175 53.1389 7.1374 53.09 7.23898L49.185 17.971L45.28 7.23898C45.2309 7.13744 45.1543 7.05178 45.0588 6.99182C44.9632 6.93186 44.8528 6.90003 44.74 6.89998H41.436C41.3965 6.89998 41.3574 6.90777 41.321 6.92291C41.2845 6.93805 41.2514 6.96024 41.2235 6.9882C41.1956 7.01616 41.1736 7.04935 41.1586 7.08587C41.1435 7.12238 41.1359 7.1615 41.136 7.20098C41.1305 7.23001 41.1326 7.25998 41.142 7.28798ZM68.33 6.88998C67.2084 6.58926 66.0365 6.52437 64.8885 6.69941C63.7406 6.87445 62.6413 7.28562 61.6603 7.90696C60.6792 8.52829 59.8377 9.34629 59.1887 10.3093C58.5398 11.2723 58.0976 12.3594 57.89 13.502C57.7086 14.4937 57.7082 15.5101 57.889 16.502C58.1738 18.0685 58.8978 19.5219 59.9767 20.6929C61.0556 21.8638 62.445 22.7041 63.983 23.116C65.3079 23.4724 66.7 23.4984 68.0373 23.1915C69.3745 22.8847 70.6161 22.2544 71.653 21.356C71.7094 21.3007 71.7543 21.2348 71.7852 21.1621C71.8161 21.0895 71.8323 21.0114 71.833 20.9324C71.8336 20.8535 71.8187 20.7751 71.789 20.702C71.7593 20.6288 71.7155 20.5622 71.66 20.506L69.732 18.578C69.6198 18.4682 69.4689 18.4071 69.312 18.408C69.1904 18.4079 69.0716 18.4452 68.972 18.515C68.4209 18.9579 67.773 19.2644 67.0811 19.4097C66.3891 19.5549 65.6727 19.5348 64.99 19.351C64.284 19.1627 63.6347 18.805 63.0983 18.3088C62.5619 17.8127 62.1547 17.1932 61.912 16.504H73.904C74.0499 16.5037 74.1907 16.4502 74.3001 16.3536C74.4094 16.2569 74.4798 16.1238 74.498 15.979C74.7329 13.9757 74.2389 11.9547 73.1064 10.2856C71.9738 8.61656 70.2784 7.41186 68.33 6.88998ZM61.912 13.504C62.2901 12.436 63.0569 11.5498 64.0594 11.0221C65.062 10.4945 66.2266 10.3641 67.321 10.657C68.0268 10.8454 68.6759 11.2032 69.2122 11.6993C69.7484 12.1955 70.1554 12.8149 70.398 13.504H61.912ZM77.098 7.49998V22.5C77.098 22.6589 77.1611 22.8114 77.2734 22.9239C77.3857 23.0364 77.538 23.0997 77.697 23.1H80.397C80.4759 23.1002 80.554 23.0849 80.6269 23.0548C80.6998 23.0248 80.7661 22.9806 80.8219 22.9248C80.8776 22.8691 80.9218 22.8028 80.9519 22.7299C80.9819 22.657 80.9973 22.5788 80.997 22.5V14.977C81.0029 13.8781 81.4106 12.8193 82.1432 12.0002C82.8757 11.181 83.8826 10.6581 84.974 10.53C85.1186 10.5113 85.2514 10.4406 85.3477 10.3311C85.4439 10.2216 85.497 10.0808 85.497 9.93498V6.98998C85.4967 6.94753 85.4875 6.90562 85.4699 6.86698C85.4524 6.82833 85.4269 6.79383 85.3951 6.76571C85.3633 6.73759 85.3259 6.71649 85.2854 6.70379C85.2449 6.69108 85.2022 6.68706 85.16 6.69198C83.554 6.94998 82.193 7.56198 80.997 8.56698L80.531 7.28698C80.4874 7.17353 80.4105 7.07593 80.3103 7.00704C80.2102 6.93814 80.0915 6.90116 79.97 6.90098H77.697C77.5379 6.90098 77.3853 6.96419 77.2727 7.07672C77.1602 7.18924 77.097 7.34185 77.097 7.50098L77.098 7.49998ZM87.773 0.59898V22.5C87.773 22.833 88.043 23.1 88.373 23.1H91.073C91.1518 23.1001 91.2299 23.0847 91.3028 23.0546C91.3756 23.0245 91.4418 22.9803 91.4976 22.9245C91.5533 22.8688 91.5975 22.8026 91.6276 22.7297C91.6577 22.6569 91.6731 22.5788 91.673 22.5V0.59998C91.6731 0.521197 91.6577 0.443164 91.6276 0.370365C91.5975 0.297566 91.5533 0.231436 91.4975 0.175774C91.4417 0.120112 91.3755 0.0760164 91.3027 0.0460195C91.2298 0.0160227 91.1518 0.00071631 91.073 0.00097991H88.373C88.214 0.000979689 88.0616 0.0640565 87.9491 0.176362C87.8366 0.288668 87.7733 0.441023 87.773 0.59998V0.59898ZM93.937 7.28798L99.57 22.76C99.619 22.8613 99.6956 22.9467 99.7909 23.0065C99.8862 23.0662 99.9965 23.0979 100.109 23.098L97.739 29.612C97.7254 29.6569 97.7225 29.7043 97.7306 29.7506C97.7386 29.7968 97.7574 29.8404 97.7854 29.8781C97.8134 29.9157 97.8499 29.9463 97.8918 29.9673C97.9338 29.9883 97.9801 29.9991 98.027 29.999H101.331C101.444 29.9993 101.554 29.9677 101.65 29.9076C101.745 29.8476 101.822 29.7617 101.87 29.66L104.258 23.098L104.381 22.76L110.013 7.28698C110.027 7.24208 110.029 7.19462 110.021 7.14841C110.013 7.10219 109.995 7.05851 109.967 7.02088C109.939 6.98324 109.902 6.9527 109.86 6.9317C109.818 6.91071 109.772 6.89984 109.725 6.89998H106.421C106.308 6.8997 106.198 6.93128 106.102 6.99109C106.007 7.05089 105.93 7.13648 105.881 7.23798L101.976 17.97L98.071 7.23798C98.0219 7.13644 97.9453 7.05078 97.8498 6.99082C97.7542 6.93086 97.6438 6.89903 97.531 6.89898H94.227C94.1875 6.89898 94.1484 6.90677 94.112 6.92191C94.0755 6.93705 94.0424 6.95924 94.0145 6.9872C93.9866 7.01516 93.9646 7.04835 93.9495 7.08487C93.9345 7.12138 93.9269 7.1605 93.927 7.19998C93.9242 7.22936 93.9276 7.26 93.937 7.28798Z" fill="white"/>
</g>
<defs>
<clipPath id="clip0_3_1290">
<rect width="111" height="30" fill="white"/>
</clipPath>
</defs>
</svg>
